<svg width="10" height="13" viewBox="0 0 10 13" fill="none" xmlns="http://www.w3.org/2000/svg">
<path opacity="0.5" d="M7.65739 2.76566e-05C7.42209 -0.00120831 7.18884 0.0397615 6.97102 0.120587C6.75319 0.201414 6.55507 0.320505 6.38801 0.471035L1.02445 5.34353C0.856877 5.49452 0.723871 5.67415 0.633104 5.87207C0.542337 6.06999 0.495605 6.28228 0.495605 6.49669C0.495605 6.7111 0.542337 6.92339 0.633104 7.12131C0.723871 7.31923 0.856877 7.49886 1.02445 7.64985L6.38801 12.5223C6.72467 12.8282 7.18128 13 7.65739 13C8.13349 13 8.5901 12.8282 8.92676 12.5223C9.26342 12.2165 9.45255 11.8017 9.45255 11.3692C9.45255 10.9367 9.26342 10.5219 8.92676 10.216L4.8147 6.49669L8.92676 2.77735C9.09433 2.62636 9.22734 2.44673 9.31811 2.24881C9.40887 2.05089 9.45561 1.8386 9.45561 1.62419C9.45561 1.40978 9.40887 1.1975 9.31811 0.999577C9.22734 0.801657 9.09433 0.622023 8.92676 0.471035C8.7597 0.320505 8.56158 0.201414 8.34375 0.120587C8.12593 0.0397615 7.89268 -0.00120831 7.65739 2.76566e-05Z" fill="#A774E7"/>
</svg>
