<svg width="10" height="13" viewBox="0 0 10 13" fill="none" xmlns="http://www.w3.org/2000/svg">
<path d="M7.7067 2.76566e-05C7.47141 -0.00120831 7.23816 0.0397615 7.02033 0.120587C6.80251 0.201414 6.60438 0.320505 6.43733 0.471035L1.07377 5.34353C0.906193 5.49452 0.773188 5.67415 0.682421 5.87207C0.591654 6.06999 0.544922 6.28228 0.544922 6.49669C0.544922 6.7111 0.591654 6.92339 0.682421 7.12131C0.773188 7.31923 0.906193 7.49886 1.07377 7.64985L6.43733 12.5223C6.77399 12.8282 7.23059 13 7.7067 13C8.18281 13 8.63942 12.8282 8.97608 12.5223C9.31274 12.2165 9.50187 11.8017 9.50187 11.3692C9.50187 10.9367 9.31274 10.5219 8.97608 10.216L4.86401 6.49669L8.97608 2.77735C9.14365 2.62636 9.27666 2.44673 9.36742 2.24881C9.45819 2.05089 9.50492 1.8386 9.50492 1.62419C9.50492 1.40978 9.45819 1.1975 9.36742 0.999577C9.27666 0.801657 9.14365 0.622023 8.97608 0.471035C8.80902 0.320505 8.6109 0.201414 8.39307 0.120587C8.17524 0.0397615 7.942 -0.00120831 7.7067 2.76566e-05Z" fill="#A774E7"/>
</svg>
