<svg width="31" height="34" viewBox="0 0 31 34" fill="none" xmlns="http://www.w3.org/2000/svg">
<path fill-rule="evenodd" clip-rule="evenodd" d="M23.076 16.8463H27.4906V15.9795C27.2381 15.031 26.8366 14.3879 26.3153 13.9963C25.7961 13.606 25.1205 13.4388 24.3285 13.4447L5.78536 13.4487C5.33998 13.4487 4.97897 13.0823 4.97897 12.6297C4.97897 12.1777 5.33998 11.8113 5.78536 11.8113L8.36869 11.812C8.09335 11.3766 7.86118 10.9113 7.6761 10.4215C7.57342 10.1447 7.48447 9.86464 7.41122 9.57725H4.3642C3.60882 9.57725 2.9208 9.89185 2.42179 10.3983C1.92344 10.904 1.61344 11.6022 1.61344 12.3695V29.5704C1.61344 30.3363 1.92409 31.0345 2.4231 31.5403C2.92015 32.0487 3.60882 32.3626 4.3642 32.3626H24.7392C25.4939 32.3626 26.1819 32.0473 26.6816 31.5416C27.1799 31.0345 27.4906 30.3356 27.4906 29.5704V27.1166H23.076C21.7124 27.1166 20.4731 26.5505 19.5771 25.6405L19.4927 25.5476C18.6451 24.6423 18.1226 23.423 18.1226 22.0896V21.8732C18.1226 20.496 18.6798 19.2403 19.5771 18.3277L19.5856 18.3191C20.4849 17.4104 21.7203 16.8463 23.076 16.8463ZM29.104 16.8927C29.569 16.987 29.9856 17.2206 30.3087 17.5485C30.7345 17.9806 31 18.5792 31 19.2383V24.6224C31 25.304 30.7234 25.9272 30.276 26.3819C29.9548 26.7117 29.5487 26.9433 29.104 27.0502V29.5704C29.104 30.7843 28.6109 31.8914 27.8202 32.6938L27.8169 32.6971C27.0262 33.4996 25.9354 34 24.7392 34H4.3642C3.16867 34 2.07648 33.5002 1.28382 32.6965C0.491814 31.896 0 30.7889 0 29.5704V12.3695C0 11.1503 0.49116 10.0425 1.2812 9.24008C2.07124 8.43832 3.16279 7.93987 4.3642 7.93987H7.18167C7.1784 7.85225 7.17709 7.76398 7.17709 7.67504C7.17709 5.55779 8.02468 3.63766 9.40072 2.23855C12.347 -0.742863 17.1631 -0.7495 20.1081 2.23855L20.1807 2.31886C21.509 3.70602 22.3272 5.59562 22.3272 7.67504C22.3272 7.76398 22.3252 7.85225 22.3226 7.93987H24.7392C25.9367 7.93987 27.0276 8.43964 27.8189 9.24274C28.6116 10.0438 29.104 11.1529 29.104 12.3695V16.8927ZM21.1349 11.8133H24.3069C25.4455 11.8027 26.4488 12.0655 27.2735 12.6861C27.3474 12.7418 27.42 12.8003 27.4906 12.8613V12.3695C27.4906 11.6049 27.1799 10.906 26.6803 10.3989C26.1839 9.89119 25.4965 9.57725 24.7392 9.57725H22.0924C22.0205 9.8653 21.9315 10.1474 21.8282 10.4215C21.6438 10.9126 21.4109 11.3772 21.1349 11.8133ZM13.5177 4.29408C13.5151 3.97483 13.4857 3.74585 13.8768 3.75182L15.4765 3.76708C15.8839 3.76509 15.9925 3.89651 15.9879 4.28412V5.82129H17.4928C17.8073 5.81929 18.0323 5.78943 18.0264 6.18566L18.0114 7.80911C18.0134 8.22327 17.8845 8.33345 17.5019 8.3288H15.9879V9.86464C15.9925 10.2529 15.8839 10.3843 15.4765 10.3817L13.8768 10.3969C13.4857 10.4029 13.5151 10.1746 13.5177 9.85535V8.3288H12.003C11.6204 8.33345 11.4909 8.22261 11.4935 7.80911L11.4785 6.18566C11.472 5.78943 11.6976 5.81929 12.0122 5.82129H13.5177V4.29408ZM14.7525 1.29076C18.2266 1.29076 21.0427 4.14872 21.0427 7.67504C21.0427 9.31442 20.4332 10.8098 19.4319 11.9401H10.0717C9.07044 10.8098 8.46156 9.31442 8.46156 7.67504C8.46156 4.14872 11.2777 1.29076 14.7525 1.29076ZM23.4848 19.9286C24.0165 19.9286 24.4992 20.1483 24.8484 20.5033C25.2003 20.8604 25.4167 21.3502 25.4167 21.8898C25.4167 22.4288 25.2003 22.9186 24.851 23.2737C24.4992 23.6308 24.0165 23.8505 23.4848 23.8505C22.9537 23.8505 22.4717 23.6308 22.1212 23.2763L22.1173 23.2724C21.768 22.9166 21.5528 22.4275 21.5528 21.8898C21.5528 21.3509 21.7693 20.8611 22.1186 20.506L22.1225 20.502C22.4724 20.1483 22.9544 19.9286 23.4848 19.9286Z" fill="#A774E7"/>
</svg>
