<svg width="22" height="18" viewBox="0 0 22 18" fill="none" xmlns="http://www.w3.org/2000/svg">
<path d="M10.1835 17.6459C9.36644 16.6498 8.00251 15.5844 6.68157 14.9103C5.34778 14.2296 4.08089 13.8516 2.6425 13.7054C2.3589 13.6768 2.12378 13.6502 2.12002 13.6464C2.11635 13.6464 2.12369 10.572 2.13835 6.82291L2.16255 0.00666241L2.42443 0.033312C4.03241 0.198921 5.82712 0.829759 7.18504 1.70901C8.35532 2.46662 9.56378 3.63655 10.3342 4.75755L10.5281 5.03966V11.5144C10.5281 15.0754 10.5135 17.9884 10.4959 17.9878C10.4775 17.9872 10.3372 17.8332 10.1835 17.6459ZM11.5156 11.498V4.99626L11.89 4.47678C12.3681 3.81358 13.3297 2.8144 13.9656 2.32043C15.6653 0.999556 17.5092 0.253172 19.626 0.028553L19.8945 0V6.82576V13.6517L19.583 13.6822C16.6355 13.9669 14.0802 15.2296 12.0815 17.3886L11.5156 18V11.498ZM13.3418 17.558C14.4986 16.4311 16.0301 15.5357 17.5685 15.0862C18.3735 14.8511 19.4203 14.6871 20.1153 14.6871C20.4796 14.6871 20.6818 14.6052 20.7958 14.4108C20.8816 14.2643 20.8825 14.2013 20.8827 8.67031L20.8828 3.07728L21.044 3.10774C21.1325 3.12678 21.3839 3.19911 21.6025 3.27145L22 3.40279V10.3829C22 14.222 21.9853 17.3631 21.9672 17.3631C21.9489 17.3631 21.6832 17.3041 21.3764 17.2317C20.1637 16.9481 19.1651 16.8506 17.8536 16.8874C16.2627 16.9331 15.0264 17.1634 13.5567 17.6907L12.9981 17.8911L13.3418 17.558ZM8.4433 17.6665C7.83294 17.4396 6.82494 17.1721 6.14446 17.0568C5.21921 16.9007 4.58087 16.8592 3.44688 16.8855C2.32015 16.9102 1.63862 16.9921 0.708897 17.2112C0.44893 17.2721 0.183059 17.3349 0.118067 17.3482L0 17.3749L0.000201723 10.3761L0.000421585 3.37709L0.505122 3.22481C0.782689 3.14105 1.03399 3.06301 1.06352 3.05349C1.10624 3.03445 1.11724 4.17468 1.11724 8.64023C1.11724 14.7424 1.1044 14.4023 1.35517 14.5734C1.44243 14.6324 1.62375 14.6591 2.14154 14.6914C4.19939 14.8133 6.15201 15.5307 7.7461 16.7515C8.08985 17.0147 8.91483 17.7377 8.96212 17.8171C8.99512 17.8723 8.97311 17.8666 8.44343 17.6686L8.4433 17.6665Z" fill="#A774E7"/>
</svg>
