<svg width="48" height="48" viewBox="0 0 48 48" fill="none" xmlns="http://www.w3.org/2000/svg">
<path fill-rule="evenodd" clip-rule="evenodd" d="M15.3859 15.5837H21.6821V14.6182C21.6821 14.2782 21.9598 14 22.3003 14H25.7765C26.1168 14 26.3947 14.278 26.3947 14.6182V15.5839H32.6141C32.8267 15.5839 33 15.7577 33 15.9701V17.863H15V15.9699C15 15.7575 15.1734 15.5837 15.3859 15.5837ZM16.4287 18.8672H31.7055C32.0239 18.8672 32.3131 19.1301 32.2843 19.4466L30.9915 33.6232C30.9628 33.9398 30.73 34.2021 30.4122 34.2021H17.7037C17.3857 34.2021 17.1526 33.9403 17.1243 33.6232L15.8493 19.4466C15.821 19.129 16.1099 18.8672 16.4287 18.8672ZM26.3567 21.0691H27.9787V31.8072H26.3567V21.0691ZM19.944 21.0691H21.5662V31.8072H19.944V21.0691ZM23.1499 21.0691H24.7725V31.8072H23.1499V21.0691Z" fill="#AAAAAA"/>
</svg>
