<svg width="26" height="26" viewBox="0 0 26 26" fill="none" xmlns="http://www.w3.org/2000/svg">
<rect width="26" height="26" rx="13" fill="#A774E7"/>
<path d="M15.4059 10.9013C15.4737 10.8348 15.5539 10.7822 15.6419 10.7467C15.7299 10.7111 15.8241 10.6932 15.9191 10.694C16.0141 10.6949 16.1079 10.7144 16.1953 10.7515C16.2827 10.7886 16.362 10.8426 16.4285 10.9103C16.4951 10.978 16.5477 11.0582 16.5832 11.1463C16.6188 11.2343 16.6367 11.3285 16.6358 11.4235C16.635 11.5184 16.6155 11.6123 16.5784 11.6997C16.5413 11.7871 16.4873 11.8663 16.4196 11.9329L13.6714 14.6472C13.5359 14.7803 13.3535 14.8548 13.1636 14.8548C12.9737 14.8548 12.7913 14.7803 12.6558 14.6472L9.94746 11.9727C9.81823 11.8372 9.74665 11.6568 9.74779 11.4695C9.74893 11.2822 9.8227 11.1027 9.95356 10.9688C10.0844 10.8348 10.2622 10.7569 10.4494 10.7513C10.6366 10.7458 10.8186 10.8132 10.9571 10.9392L12.4487 12.4168L12.4646 7.21324C12.4758 7.02781 12.5577 6.85375 12.6934 6.72696C12.8292 6.60017 13.0084 6.53033 13.1942 6.53186C13.3799 6.5334 13.558 6.60618 13.6916 6.73519C13.8253 6.86421 13.9043 7.0396 13.9124 7.22518L13.8964 12.3889L15.402 10.9013H15.4059Z" fill="white"/>
<path d="M7.47212 17.5467V14.7149C7.48347 14.5295 7.5656 14.3555 7.70153 14.2288C7.83747 14.1022 8.01684 14.0326 8.20262 14.0344C8.3884 14.0362 8.5664 14.1092 8.69987 14.2385C8.83334 14.3677 8.9121 14.5432 8.91988 14.7289V16.79H17.5427V14.7149C17.5386 14.6167 17.5545 14.5186 17.5895 14.4267C17.6245 14.3348 17.6778 14.251 17.7462 14.1803C17.8146 14.1097 17.8967 14.0537 17.9874 14.0158C18.0781 13.9778 18.1756 13.9588 18.274 13.9597C18.3723 13.9607 18.4694 13.9816 18.5594 14.0213C18.6494 14.0609 18.7303 14.1185 18.7974 14.1904C18.8644 14.2624 18.9161 14.3472 18.9493 14.4398C18.9825 14.5324 18.9965 14.6307 18.9905 14.7289V17.5467C18.9819 17.7317 18.9028 17.9063 18.7695 18.0348C18.6362 18.1633 18.4587 18.2359 18.2736 18.2377H8.19899C8.0137 18.2364 7.836 18.1639 7.70259 18.0353C7.56918 17.9068 7.49024 17.7318 7.48208 17.5467H7.47212Z" fill="white"/>
</svg>
