<svg width="24" height="24" viewBox="0 0 24 24" fill="none" xmlns="http://www.w3.org/2000/svg">
<path d="M21.75 20H2.25C1.005 20 0 19.0508 0 17.875V5.125C0 3.94917 1.005 3 2.25 3H21.75C22.995 3 24 3.94917 24 5.125V17.875C24 19.0508 22.995 20 21.75 20ZM2.25 4.41667C1.83 4.41667 1.5 4.72833 1.5 5.125V17.875C1.5 18.2717 1.83 18.5833 2.25 18.5833H21.75C22.17 18.5833 22.5 18.2717 22.5 17.875V5.125C22.5 4.72833 22.17 4.41667 21.75 4.41667H2.25Z" fill="#21AD78"/>
<path d="M12.0001 14.2765C10.9501 14.2765 9.99013 13.8799 9.27013 13.1574L1.39513 5.25238C1.11013 4.96905 1.12513 4.51572 1.42513 4.24655C1.72513 3.97738 2.20513 3.99155 2.49013 4.27488L10.3651 12.1799C11.2201 13.0441 12.7801 13.0441 13.6351 12.1799L21.5101 4.28905C21.7951 4.00572 22.2751 3.99155 22.5751 4.26072C22.8751 4.52988 22.8901 4.98322 22.6051 5.26655L14.7301 13.1715C14.0101 13.8941 13.0501 14.2907 12.0001 14.2907V14.2765Z" fill="#21AD78"/>
</svg>
