<svg width="22" height="23" viewBox="0 0 22 23" fill="none" xmlns="http://www.w3.org/2000/svg">
<path d="M10.7945 0H11.0396C11.7473 0.0328856 12.4466 0.268346 13.0171 0.690597C13.4831 1.02691 13.8589 1.48029 14.1198 1.99155C14.9528 1.71531 15.8881 1.74907 16.6922 2.10424C16.8834 2.17571 16.957 2.4366 16.833 2.59752C16.7413 2.73389 16.5515 2.76765 16.4085 2.69662C15.7074 2.40021 14.8901 2.38486 14.1838 2.67206C14.0658 2.71854 13.9312 2.77642 13.8085 2.71152C13.6809 2.66022 13.6353 2.52123 13.5827 2.40722C13.3165 1.78547 12.8224 1.26631 12.2173 0.96552C11.5153 0.614302 10.6709 0.562562 9.9303 0.822139C9.17396 1.08128 8.53688 1.66927 8.22251 2.40503C8.16989 2.51947 8.12429 2.65847 7.99801 2.71065C7.87349 2.77642 7.73757 2.71854 7.61831 2.67206C7.03954 2.43616 6.38405 2.39758 5.78117 2.56113C4.94152 2.78387 4.22026 3.40212 3.86423 4.19357C3.54985 4.87715 3.52617 5.67999 3.77873 6.38681C4.30269 6.38681 4.8262 6.38813 5.35016 6.38637C6.0973 5.15295 7.26974 4.18699 8.61887 3.68099C9.85839 3.20831 11.2448 3.13465 12.5277 3.47052C14.1474 3.88795 15.5882 4.95432 16.4541 6.38594C16.9781 6.38813 17.502 6.38681 18.026 6.38681C18.3474 5.49627 18.2106 4.45227 17.6445 3.68976C17.5498 3.56085 17.4139 3.41659 17.474 3.24252C17.5292 3.01232 17.8568 2.92331 18.0168 3.10045C18.7837 3.98617 19.0437 5.2652 18.717 6.38725C19.0923 6.389 19.4808 6.36006 19.8386 6.49599C20.5515 6.73978 21.0746 7.44617 21.093 8.20034C21.1018 9.06238 21.0939 9.92486 21.0965 10.7869C21.0939 11.1083 21.1176 11.4376 21.0255 11.7502C20.8606 12.3523 20.377 12.8539 19.7812 13.0393C19.4383 13.1547 19.0722 13.1284 18.7166 13.1305C18.9867 14.0781 18.8499 15.1304 18.3399 15.974C18.788 16.9882 19.2383 18.0016 19.6878 19.0157C19.7623 19.1841 19.7983 19.3735 19.7636 19.5568C19.7044 19.9124 19.4085 20.2154 19.0529 20.2785C18.8836 20.3119 18.7096 20.2847 18.5482 20.2294C17.6897 19.9475 16.8303 19.6695 15.9709 19.3898C15.5934 20.2303 15.2186 21.0726 14.8397 21.9132C14.7174 22.2061 14.4324 22.4069 14.1207 22.4499H13.9422C13.634 22.4148 13.3472 22.2227 13.2201 21.9369C12.8294 21.0682 12.4488 20.1952 12.0595 19.3262C11.3141 19.5761 10.4907 19.5761 9.74527 19.3262C9.39845 20.1032 9.0547 20.8819 8.71007 21.6597C8.62282 21.8549 8.5474 22.0662 8.38474 22.2135C8.24618 22.3477 8.06028 22.417 7.87305 22.4499H7.69373C7.3776 22.4126 7.08909 22.2078 6.96501 21.9127C6.58618 21.0722 6.2113 20.2303 5.83378 19.3898C5.05903 19.6419 4.28471 19.8958 3.50995 20.147C3.28941 20.2163 3.06623 20.3154 2.8299 20.2895C2.45765 20.2579 2.12837 19.9633 2.04945 19.5993C2.00209 19.4042 2.03498 19.1977 2.11653 19.0162C2.23535 18.7522 2.34804 18.4856 2.46993 18.2234C2.52737 18.0835 2.68609 17.9958 2.83516 18.0292C3.01844 18.0599 3.14822 18.2686 3.08245 18.4462C2.97021 18.7496 2.81236 19.0355 2.69924 19.3389C2.62909 19.5073 2.8264 19.6927 2.99169 19.6217C3.94227 19.317 4.89153 19.0061 5.83992 18.6948C5.9434 18.661 6.06134 18.6343 6.16175 18.6921C6.26172 18.7377 6.30907 18.843 6.35336 18.9368C6.74753 19.826 7.14916 20.7118 7.54377 21.6005C7.58104 21.6887 7.64243 21.7834 7.74853 21.7895C7.86779 21.8115 7.97127 21.7246 8.00898 21.6172C8.38693 20.7631 8.76751 19.9102 9.14327 19.0556C8.52022 18.704 8.00766 18.1651 7.68671 17.5258C7.0242 17.7402 6.30118 17.7718 5.62727 17.5898C4.97616 17.4223 4.38161 17.0606 3.91903 16.5734C3.83529 16.751 3.7682 16.9365 3.67613 17.1101C3.60071 17.2579 3.40297 17.318 3.25565 17.2456C3.10087 17.1785 3.02151 16.9825 3.09035 16.8273C3.20785 16.5397 3.34378 16.2599 3.46479 15.9736C2.95443 15.1309 2.81719 14.0776 3.08815 13.1305C2.74177 13.1279 2.38662 13.1538 2.05164 13.0481C1.45665 12.8714 0.965576 12.3834 0.789755 11.7875C0.681455 11.4499 0.712147 11.0916 0.708201 10.7431C0.710393 9.89504 0.703378 9.04747 0.711709 8.1999C0.728809 7.44397 1.2554 6.73847 1.96921 6.49555C2.32611 6.35875 2.71371 6.38944 3.08815 6.38725C2.84525 5.5296 2.92943 4.58381 3.33194 3.78754C3.76031 2.92944 4.54559 2.25726 5.46197 1.97313C6.18104 1.74469 6.96983 1.75477 7.68539 1.99155C7.96338 1.44346 8.37684 0.963327 8.88765 0.620441C9.44712 0.235899 10.118 0.0263084 10.7945 0ZM9.32742 4.13963C8.04975 4.49611 6.90275 5.30247 6.13851 6.38681C9.31514 6.38681 12.4918 6.38813 15.6684 6.38637C14.9787 5.41778 13.9909 4.66405 12.8702 4.26504C11.7407 3.85594 10.4828 3.81122 9.32742 4.13963ZM2.28314 7.0853C1.76576 7.21509 1.36852 7.71232 1.3672 8.2477C1.3637 9.22462 1.36764 10.202 1.36545 11.1793C1.3615 11.3964 1.40184 11.6165 1.50532 11.809C1.71227 12.2146 2.15775 12.4807 2.6133 12.4724C8.13744 12.4737 13.6616 12.4733 19.1862 12.4724C19.6216 12.4807 20.0512 12.2431 20.2683 11.8642C20.3915 11.6595 20.4437 11.4192 20.4393 11.1815C20.4358 10.1884 20.4441 9.19524 20.4349 8.2021C20.4138 7.5799 19.8531 7.04102 19.2304 7.04584C13.7655 7.04321 8.30055 7.04584 2.8356 7.04452C2.65101 7.04452 2.46291 7.03707 2.28314 7.0853ZM3.77873 13.131C3.48715 13.9294 3.57046 14.852 4.00015 15.5851C4.40485 16.2871 5.11033 16.8098 5.90218 16.9847C6.50506 17.1224 7.14697 17.0518 7.71346 16.8085C7.89542 16.7146 8.12385 16.8251 8.18041 17.0167C8.46892 17.7477 9.06435 18.3506 9.79438 18.6426C10.4731 18.9206 11.2566 18.9289 11.9424 18.6693C12.6715 18.3975 13.281 17.8196 13.5857 17.1036C13.6353 16.9913 13.6813 16.8584 13.8041 16.8067C13.94 16.7335 14.0873 16.8058 14.2167 16.8567C14.9971 17.1658 15.9113 17.1079 16.6479 16.7059C17.2727 16.3691 17.7726 15.8022 18.0159 15.1344C18.2558 14.4951 18.2566 13.7729 18.0256 13.131C17.5016 13.131 16.9776 13.1301 16.4541 13.1314C15.5478 14.6301 14.0106 15.7241 12.3015 16.0999C11.0913 16.37 9.80359 16.2823 8.64387 15.8434C7.2842 15.3413 6.103 14.3714 5.35148 13.1314C4.82708 13.1301 4.30312 13.131 3.77873 13.131ZM6.13851 13.131C6.84005 14.1189 7.85464 14.8814 9.00165 15.2738C10.1421 15.6724 11.4088 15.7 12.5654 15.351C13.8089 14.9844 14.9169 14.1877 15.6671 13.131C12.4909 13.1305 9.31471 13.131 6.13851 13.131ZM16.3699 17.5341C15.6443 17.77 14.8441 17.7665 14.1211 17.5232C13.7966 18.162 13.2863 18.704 12.6615 19.0556C13.0328 19.901 13.4108 20.7438 13.7822 21.5891C13.8164 21.6628 13.8536 21.7505 13.9391 21.7764C14.0619 21.8277 14.2066 21.754 14.2469 21.6295C14.6595 20.7104 15.0699 19.7901 15.4829 18.871C15.5417 18.7097 15.7315 18.6137 15.8947 18.6746C16.8685 18.9859 17.8388 19.3091 18.8122 19.6222C18.9345 19.6713 19.0779 19.5893 19.1116 19.4652C19.1379 19.3858 19.095 19.3091 19.0673 19.2376C18.6719 18.3501 18.2799 17.4609 17.8853 16.573C17.4683 17.0102 16.9474 17.3517 16.3699 17.5341Z" fill="#7C46BF"/>
<path d="M8.7687 8.03549C8.8976 7.92061 9.08132 7.96095 9.23829 7.9535C9.52942 7.9649 9.8267 7.92368 10.1126 7.99603C10.4932 8.09469 10.8141 8.39723 10.929 8.77388C11.0325 9.09879 10.9798 9.46842 10.7891 9.7508C10.5922 10.0507 10.2507 10.2493 9.89247 10.2721C9.69955 10.2844 9.50575 10.2752 9.31239 10.2783C9.31063 10.594 9.31546 10.9101 9.31151 11.2258C9.31896 11.4065 9.15717 11.5709 8.97521 11.5608C8.80027 11.5608 8.64768 11.4017 8.65645 11.2271C8.65251 10.2612 8.65601 9.29523 8.6547 8.32971C8.65031 8.22097 8.68144 8.10609 8.7687 8.03549ZM9.31239 8.61208C9.31239 8.94796 9.31195 9.28383 9.31283 9.6197C9.59607 9.60128 9.935 9.69248 10.1639 9.475C10.3708 9.29479 10.3739 8.94401 10.1683 8.7616C9.94026 8.53798 9.59782 8.63006 9.31239 8.61208Z" fill="#7C46BF"/>
<path d="M14.3558 8.01094C14.4895 7.92413 14.657 7.9614 14.8074 7.9535C15.1445 7.96403 15.5023 7.90922 15.8163 8.06356C16.2644 8.25956 16.548 8.77827 16.4406 9.2606C16.3595 9.68416 16.003 10.017 15.5905 10.1183C15.8404 10.4006 16.089 10.6834 16.338 10.9667C16.4016 11.0382 16.4625 11.1228 16.4612 11.2232C16.4718 11.4065 16.3043 11.5722 16.1214 11.5608C16.0114 11.5608 15.9184 11.4916 15.8509 11.4109C15.5238 11.0377 15.1972 10.6646 14.8683 10.2932C14.8635 10.6185 14.8758 10.9443 14.8631 11.2697C14.8517 11.4433 14.678 11.5801 14.507 11.5595C14.3408 11.5472 14.2045 11.3933 14.2115 11.2272C14.2084 10.2616 14.2111 9.29567 14.2097 8.33015C14.2023 8.20826 14.2492 8.07847 14.3558 8.01094ZM14.8679 8.61209C14.8679 8.90412 14.8674 9.19614 14.8683 9.4886C15.0376 9.48597 15.2072 9.49649 15.3765 9.48246C15.5887 9.4658 15.79 9.29217 15.8022 9.07337C15.8154 8.88395 15.6773 8.70943 15.5036 8.64673C15.2984 8.58184 15.0792 8.62218 14.8679 8.61209Z" fill="#7C46BF"/>
<path d="M16.9937 8.15467C17.048 8.01523 17.2015 7.94288 17.3458 7.95385C17.8859 7.95779 18.4266 7.94595 18.9667 7.95955C19.2289 7.97708 19.3508 8.34365 19.1544 8.51728C18.9567 8.68785 18.6708 8.58043 18.4344 8.61419C18.438 9.45474 18.4336 10.2949 18.4366 11.1354C18.4353 11.2328 18.4371 11.3402 18.3744 11.4222C18.2753 11.5704 18.0499 11.6063 17.9101 11.4954C17.8092 11.4252 17.7715 11.299 17.7776 11.181C17.7776 10.3247 17.7785 9.4679 17.7776 8.61156C17.59 8.60629 17.4014 8.62427 17.2151 8.60103C17.0248 8.56069 16.9121 8.33049 16.9937 8.15467Z" fill="#7C46BF"/>
<path d="M2.55074 8.33312C2.53583 8.15071 2.69236 7.9762 2.87695 7.98453C3.28779 7.9819 3.69863 7.98234 4.10946 7.98409C4.30984 7.97357 4.47821 8.18053 4.43173 8.37477C4.40498 8.52517 4.26205 8.64049 4.1099 8.63829C3.80956 8.64575 3.50877 8.63786 3.20799 8.64093C3.20755 8.90752 3.20755 9.17455 3.20799 9.44158C3.47896 9.44421 3.74949 9.43719 4.02045 9.44377C4.16646 9.44202 4.30414 9.54813 4.33746 9.69107C4.39008 9.87216 4.25065 10.0809 4.06079 10.0949C3.77667 10.1072 3.49211 10.0949 3.20755 10.1002C3.20755 10.3676 3.20755 10.6351 3.20755 10.9026C3.50746 10.9061 3.8078 10.8991 4.10771 10.9052C4.28134 10.8991 4.43874 11.0508 4.43831 11.2249C4.44751 11.4037 4.28748 11.5664 4.10858 11.5598C3.69819 11.562 3.28735 11.5625 2.87695 11.5594C2.73051 11.5625 2.59108 11.4542 2.56083 11.3104C2.54416 11.2099 2.54986 11.1073 2.54943 11.0061C2.55118 10.1151 2.54855 9.2241 2.55074 8.33312Z" fill="#7C46BF"/>
<path d="M5.26135 8.24107C5.27976 8.06261 5.46435 7.92449 5.64105 7.96001C5.74497 7.97272 5.82477 8.0477 5.88133 8.13057C6.10406 8.44759 6.32724 8.76417 6.54998 9.08119C6.78587 8.75408 7.01299 8.42041 7.24888 8.0933C7.35192 7.93765 7.59175 7.90871 7.72943 8.03499C7.86185 8.14329 7.87895 8.35244 7.77459 8.48618C7.50187 8.87642 7.22608 9.26403 6.95292 9.65339C7.26554 10.0984 7.57772 10.5431 7.89122 10.9868C7.94998 11.0688 8.00391 11.1644 7.98768 11.2692C7.97278 11.4446 7.79651 11.5853 7.62201 11.5581C7.51239 11.5485 7.4247 11.4722 7.36551 11.3841C7.09323 10.9978 6.82358 10.6101 6.54954 10.2256C6.27287 10.618 5.99752 11.0113 5.71997 11.4033C5.64237 11.5222 5.4911 11.5901 5.35211 11.5502C5.1434 11.5011 5.03642 11.2271 5.16532 11.053C5.48935 10.5838 5.82214 10.1208 6.14791 9.65339C5.88396 9.27718 5.62001 8.90097 5.3543 8.52608C5.29511 8.44364 5.24205 8.3463 5.26135 8.24107Z" fill="#7C46BF"/>
<path d="M11.6577 8.32785C11.6437 8.14194 11.8098 7.97006 11.9971 7.98365C12.4092 7.98321 12.8214 7.98014 13.2335 7.9854C13.412 7.98452 13.5619 8.1586 13.5439 8.33443C13.5352 8.49359 13.3953 8.63303 13.2353 8.63654C12.9288 8.6475 12.6214 8.63697 12.3145 8.64092C12.3145 8.90795 12.3141 9.17454 12.3145 9.44157C12.592 9.44508 12.87 9.435 13.1476 9.44552C13.3181 9.4499 13.4624 9.60995 13.4541 9.78008C13.4536 9.94626 13.3072 10.0984 13.1388 10.0971C12.8643 10.1041 12.5894 10.0971 12.3149 10.0993C12.3141 10.3672 12.3141 10.6355 12.3149 10.9034C12.6192 10.9061 12.9235 10.8982 13.2278 10.9061C13.4304 10.9034 13.5922 11.1214 13.5343 11.3147C13.4983 11.4691 13.3418 11.5739 13.1857 11.5607C12.7885 11.5607 12.3917 11.5625 11.9944 11.5598C11.8142 11.5704 11.6498 11.4094 11.6581 11.2284C11.6551 10.2615 11.6564 9.29468 11.6577 8.32785Z" fill="#7C46BF"/>
</svg>
