<svg width="24" height="24" viewBox="0 0 24 24" fill="none" xmlns="http://www.w3.org/2000/svg">
<g id="vuesax/outline/eye-slash">
<g id="eye-slash">
<path id="Vector" d="M9.47035 15.28C9.37182 15.2803 9.27421 15.2611 9.18322 15.2233C9.09222 15.1855 9.00966 15.13 8.94035 15.06C8.5385 14.6581 8.21974 14.1811 8.00226 13.656C7.78479 13.131 7.67285 12.5683 7.67285 12C7.67285 11.4317 7.78479 10.869 8.00226 10.3439C8.21974 9.81888 8.5385 9.34182 8.94035 8.93998C9.34219 8.53813 9.81925 8.21937 10.3443 8.0019C10.8693 7.78442 11.4321 7.67249 12.0003 7.67249C12.5686 7.67249 13.1314 7.78442 13.6564 8.0019C14.1814 8.21937 14.6585 8.53813 15.0603 8.93998C15.1301 9.00948 15.1855 9.09207 15.2233 9.18302C15.2611 9.27397 15.2805 9.37149 15.2805 9.46998C15.2805 9.56847 15.2611 9.66598 15.2233 9.75693C15.1855 9.84789 15.1301 9.93048 15.0603 9.99998L10.0003 15.06C9.93103 15.13 9.84847 15.1855 9.75747 15.2233C9.66648 15.2611 9.56887 15.2803 9.47035 15.28ZM12.0003 9.16998C11.5051 9.17018 11.0186 9.3003 10.5894 9.54733C10.1602 9.79435 9.80324 10.1497 9.55427 10.5778C9.3053 11.0059 9.17299 11.4918 9.17055 11.987C9.16811 12.4822 9.29561 12.9694 9.54035 13.4L13.4003 9.53998C12.9739 9.29672 12.4913 9.16917 12.0003 9.16998Z" fill="#3B3B3B"/>
<path id="Vector_2" d="M5.59983 18.51C5.42038 18.5096 5.24683 18.4459 5.10983 18.33C3.99673 17.3707 3.03578 16.2479 2.25983 15C1.73883 14.086 1.46484 13.052 1.46484 12C1.46484 10.9479 1.73883 9.91399 2.25983 8.99998C4.69983 5.17998 8.24983 2.97998 11.9998 2.97998C14.2728 3.00619 16.4748 3.77531 18.2698 5.16998C18.429 5.28933 18.5342 5.467 18.5623 5.66391C18.5904 5.86083 18.5392 6.06085 18.4198 6.21998C18.3005 6.37911 18.1228 6.48431 17.9259 6.51244C17.729 6.54057 17.529 6.48933 17.3698 6.36998C15.835 5.16904 13.9485 4.50506 11.9998 4.47998C8.76983 4.47998 5.67983 6.41998 3.51983 9.80998C3.15077 10.4809 2.95726 11.2342 2.95726 12C2.95726 12.7657 3.15077 13.519 3.51983 14.19C4.22434 15.308 5.08657 16.3184 6.07982 17.19C6.22999 17.3206 6.32261 17.5051 6.33758 17.7035C6.35256 17.902 6.28869 18.0983 6.15983 18.25C6.09133 18.3318 6.00563 18.3975 5.90884 18.4425C5.81205 18.4874 5.70654 18.5105 5.59983 18.51Z" fill="#3B3B3B"/>
<path id="Vector_3" d="M11.9996 21.0199C10.6655 21.0181 9.34561 20.746 8.1196 20.2199C8.02899 20.1819 7.94676 20.1263 7.87762 20.0564C7.80848 19.9866 7.75378 19.9038 7.71663 19.8128C7.67949 19.7218 7.66063 19.6244 7.66114 19.5261C7.66165 19.4278 7.68151 19.3306 7.7196 19.2399C7.75768 19.1493 7.81324 19.0671 7.8831 18.998C7.95296 18.9288 8.03575 18.8741 8.12676 18.837C8.21776 18.7998 8.31518 18.781 8.41347 18.7815C8.51176 18.782 8.60899 18.8019 8.6996 18.8399C9.73923 19.286 10.8583 19.5173 11.9896 19.5199C15.2196 19.5199 18.3096 17.5799 20.4696 14.1899C20.8386 13.519 21.0322 12.7657 21.0322 11.9999C21.0322 11.2342 20.8386 10.4809 20.4696 9.80995C20.1615 9.32329 19.8243 8.85577 19.4596 8.40995C19.3353 8.25414 19.2771 8.05572 19.2977 7.85744C19.3183 7.65916 19.4159 7.4769 19.5696 7.34995C19.6462 7.28712 19.7345 7.2401 19.8295 7.21161C19.9244 7.18311 20.024 7.17371 20.1225 7.18394C20.2211 7.19417 20.3167 7.22382 20.4037 7.2712C20.4907 7.31857 20.5675 7.38273 20.6296 7.45995C21.03 7.95071 21.4006 8.46496 21.7396 8.99995C22.2606 9.91395 22.5346 10.9479 22.5346 11.9999C22.5346 13.052 22.2606 14.0859 21.7396 14.9999C19.2996 18.8199 15.7496 21.0199 11.9996 21.0199Z" fill="#3B3B3B"/>
<path id="Vector_4" d="M12.6898 16.27C12.515 16.2692 12.3459 16.208 12.2111 16.0969C12.0762 15.9857 11.9839 15.8314 11.9498 15.66C11.9305 15.5633 11.9308 15.4638 11.9507 15.3672C11.9706 15.2707 12.0097 15.1791 12.0657 15.098C12.1216 15.0168 12.1933 14.9478 12.2765 14.8948C12.3596 14.8419 12.4526 14.8063 12.5498 14.79C13.0982 14.6816 13.602 14.4128 13.9973 14.0175C14.3926 13.6222 14.6615 13.1184 14.7698 12.57C14.8081 12.3743 14.922 12.2017 15.0867 12.0894C15.2514 11.9771 15.4537 11.9342 15.6498 11.97C15.7471 11.9881 15.8399 12.0253 15.9228 12.0794C16.0056 12.1335 16.077 12.2034 16.1328 12.2852C16.1885 12.367 16.2276 12.459 16.2477 12.5559C16.2678 12.6528 16.2685 12.7528 16.2498 12.85C16.0885 13.6973 15.6761 14.4765 15.0662 15.0864C14.4563 15.6963 13.6771 16.1087 12.8298 16.27C12.7833 16.265 12.7363 16.265 12.6898 16.27Z" fill="#3B3B3B"/>
<path id="Vector_5" d="M1.99965 22.75C1.90113 22.7503 1.80352 22.7311 1.71253 22.6933C1.62153 22.6555 1.53897 22.6 1.46965 22.53C1.33017 22.3888 1.25195 22.1984 1.25195 22C1.25195 21.8015 1.33017 21.6111 1.46965 21.47L8.93965 14.001C9.08183 13.8685 9.26988 13.7964 9.46418 13.7998C9.65848 13.8032 9.84386 13.8819 9.98128 14.0194C10.1187 14.1568 10.1974 14.3422 10.2008 14.5365C10.2043 14.7308 10.1321 14.9188 9.99965 15.061L2.52965 22.531C2.46026 22.6008 2.37766 22.6561 2.28667 22.6937C2.19567 22.7313 2.09811 22.7505 1.99965 22.75Z" fill="#3B3B3B"/>
<path id="Vector_6" d="M14.5299 10.2211C14.4314 10.2214 14.3338 10.2021 14.2428 10.1644C14.1518 10.1266 14.0692 10.0711 13.9999 10.0011C13.8604 9.85993 13.7822 9.6695 13.7822 9.47107C13.7822 9.27264 13.8604 9.0822 13.9999 8.94107L21.4699 1.47107C21.6121 1.33859 21.8001 1.26646 21.9945 1.26989C22.1888 1.27332 22.3741 1.35203 22.5115 1.48945C22.649 1.62686 22.7277 1.81224 22.7311 2.00654C22.7345 2.20085 22.6624 2.38889 22.5299 2.53107L15.0599 10.0011C14.9906 10.0711 14.9081 10.1266 14.8171 10.1644C14.7261 10.2021 14.6285 10.2214 14.5299 10.2211Z" fill="#3B3B3B"/>
</g>
</g>
</svg>
