<svg width="28" height="28" viewBox="0 0 28 28" fill="none" xmlns="http://www.w3.org/2000/svg">
<path d="M9.34663 1.45787C13.1005 0.039399 17.4916 0.364077 20.9543 2.41103C23.7627 4.03607 25.9541 6.69447 27.0116 9.76216C27.6934 11.7701 27.9263 13.9374 27.6352 16.0409C27.3676 18.1708 26.615 20.2463 25.3915 22.0142C24.2302 23.7002 22.7046 25.1363 20.9455 26.1845C19.66 26.9503 18.2475 27.5024 16.7824 27.8095C16.7818 24.5468 16.7824 21.2847 16.7824 18.0219C17.6723 18.0219 18.5623 18.0225 19.4523 18.0219C19.6534 16.7397 19.855 15.458 20.0561 14.1763C18.7085 14.1763 17.3608 14.1763 16.0132 14.1763C16.0127 13.3122 16.0138 12.4475 16.0127 11.5833C16.0088 11.0103 16.2302 10.4231 16.6555 10.0313C17.1274 9.63086 17.7784 9.56329 18.3739 9.56109C19.1254 9.56164 19.8764 9.56164 20.6274 9.56164C20.628 8.43872 20.628 7.31636 20.6274 6.194C19.5171 6.02809 18.3953 5.91656 17.2713 5.9314C16.1489 5.95777 15.0002 6.2385 14.0855 6.91367C13.3856 7.41799 12.8505 8.13822 12.5561 8.94854C12.2693 9.71821 12.1682 10.545 12.1676 11.363C12.1676 12.3008 12.1676 13.2386 12.1671 14.1763C11.142 14.1763 10.1168 14.1763 9.09117 14.1763C9.09117 15.458 9.09117 16.7397 9.09117 18.0219C10.1168 18.0219 11.142 18.0214 12.1671 18.0219C12.1676 21.2841 12.1676 24.5463 12.1671 27.8084C10.8563 27.581 9.56528 27.2135 8.35721 26.6509C7.12882 26.0873 5.99272 25.3258 4.99781 24.4122C3.50462 23.0388 2.29601 21.3451 1.54667 19.4564C0.894016 17.8297 0.580875 16.0783 0.542969 14.3296C0.544067 11.9135 1.14947 9.48473 2.38006 7.39822C3.93204 4.69916 6.43552 2.56156 9.34663 1.45787Z" fill="#7C46BF"/>
</svg>
