<svg width="14" height="14" viewBox="0 0 14 14" fill="none" xmlns="http://www.w3.org/2000/svg">
<path d="M10.0481 8.1726C10.4157 7.90297 10.8984 8.19711 10.8984 8.68735V9.47785C10.8984 10.2561 10.3553 11.0895 9.70251 11.3346L7.95252 11.9842C7.64531 12.1006 7.14609 12.1006 6.84437 11.9842L5.09436 11.3346C4.43605 11.0895 3.89844 10.2561 3.89844 9.47785V8.68122C3.89844 8.19711 4.3812 7.90297 4.74326 8.16647L5.87336 8.98762C6.30675 9.3124 6.85534 9.47172 7.40393 9.47172C7.95252 9.47172 8.5011 9.3124 8.93449 8.98762L10.0481 8.1726Z" fill="white"/>
<path d="M12.0697 3.56751L8.56769 1.35981C7.93628 0.960957 6.89562 0.960957 6.26421 1.35981L2.7447 3.56751C1.61635 4.26971 1.61635 5.85949 2.7447 6.56731L3.68013 7.15154L6.26421 8.7694C6.89562 9.16825 7.93628 9.16825 8.56769 8.7694L11.1343 7.15154L11.9352 6.64595V8.36493C11.9352 8.59525 12.134 8.78625 12.3737 8.78625C12.6134 8.78625 12.8122 8.59525 12.8122 8.36493V5.60108C13.046 4.87641 12.8063 4.03377 12.0697 3.56751Z" fill="white"/>
</svg>
