<svg width="28" height="28" viewBox="0 0 28 28" fill="none" xmlns="http://www.w3.org/2000/svg">
<path d="M13.21 0H13.9201C16.1346 0.0558124 18.3405 0.643703 20.2673 1.74135C22.679 3.09201 24.6584 5.19746 25.8613 7.68616C26.7049 9.41741 27.1562 11.331 27.2152 13.2546V13.9111C27.1647 15.8523 26.7108 17.784 25.8603 19.5306C24.9758 21.3485 23.6863 22.9692 22.106 24.2311C20.6474 25.4005 18.9475 26.2706 17.1397 26.7506C16.092 27.0382 15.0082 27.179 13.9239 27.2152H13.3004C11.3485 27.1642 9.40519 26.7038 7.65055 25.8438C5.58337 24.8349 3.7793 23.2924 2.46053 21.4075C0.927017 19.2425 0.0728219 16.6161 0 13.9664V13.2669C0.0563439 11.256 0.549088 9.25635 1.46335 7.46238C2.71089 4.9992 4.72439 2.93573 7.15462 1.62547C9.00918 0.617657 11.1029 0.0717588 13.21 0ZM11.3873 5.80608C10.5119 5.83266 9.61621 5.83 8.77371 6.10375C7.84138 6.38388 7.02439 7.01695 6.51729 7.84775C6.08887 8.55631 5.9007 9.38446 5.8518 10.2046C5.78695 11.23 5.80289 12.2585 5.79492 13.2855C5.80343 14.5633 5.77525 15.8427 5.85977 17.119C5.93047 18.138 6.2462 19.1798 6.94891 19.9447C7.43474 20.4932 8.07366 20.8967 8.77371 21.1109C9.67893 21.4027 10.6416 21.3847 11.5819 21.4123C13.2313 21.4155 14.8812 21.4405 16.53 21.3868C17.2179 21.3661 17.9147 21.3012 18.5669 21.0684C19.4971 20.7548 20.3014 20.0856 20.775 19.2255C21.2449 18.391 21.3687 17.4177 21.3889 16.4748C21.4389 14.8275 21.416 13.1786 21.4118 11.5308C21.3831 10.5656 21.399 9.57316 21.07 8.65092C20.8531 7.99765 20.4614 7.4071 19.9474 6.94997C19.2223 6.28235 18.2427 5.96289 17.2763 5.87359C16.1091 5.77685 14.9365 5.80768 13.7665 5.79386C12.9735 5.79758 12.1804 5.79705 11.3873 5.80608Z" fill="#7C46BF"/>
<path d="M10.1235 7.26997C11.2817 7.18386 12.4447 7.21575 13.6051 7.20087C14.7389 7.21416 15.8738 7.18705 17.0059 7.26306C17.6837 7.31515 18.389 7.48152 18.9222 7.92643C19.2555 8.20496 19.5281 8.56003 19.6833 8.96773C20.0055 9.76452 19.9688 10.6394 20.0012 11.4814C20.0108 13.0224 20.0204 14.5633 19.9922 16.1037C19.9672 16.8256 19.9613 17.5703 19.6823 18.2491C19.4197 18.9092 18.8733 19.4461 18.2099 19.6997C17.4551 19.9947 16.6307 19.9707 15.8344 20.0005C14.3296 20.0159 12.8248 20.0175 11.32 19.9994C10.5434 19.9702 9.74024 19.9888 9.00511 19.6997C8.30347 19.4392 7.73312 18.8518 7.48914 18.1449C7.21911 17.4076 7.2425 16.6108 7.21273 15.8374C7.19732 14.3512 7.19732 12.8645 7.21273 11.3783C7.2425 10.6065 7.21911 9.81023 7.48807 9.07351C7.73046 8.36655 8.30028 7.77759 9.00139 7.51714C9.36018 7.37734 9.74077 7.30292 10.1235 7.26997ZM17.5083 8.53824C17.0394 8.66687 16.7365 9.19736 16.8683 9.66671C16.9799 10.1552 17.5258 10.4821 18.009 10.3444C18.5044 10.2307 18.8302 9.67043 18.6798 9.18354C18.5549 8.69239 17.9909 8.37984 17.5083 8.53824ZM12.8859 9.66033C11.5783 9.88677 10.4249 10.8143 9.91299 12.0369C9.48882 13.024 9.48828 14.1838 9.91086 15.1719C10.2495 15.9751 10.8591 16.6597 11.6161 17.0908C12.9774 17.8908 14.8075 17.7685 16.0476 16.7905C16.7955 16.2202 17.3313 15.3782 17.5269 14.4575C17.7225 13.5629 17.6002 12.6014 17.1814 11.786C16.7827 11.0004 16.1172 10.3535 15.3199 9.97926C14.5683 9.621 13.704 9.5115 12.8859 9.66033Z" fill="#7C46BF"/>
<path d="M13.1499 11.0455C13.8367 10.9195 14.5718 11.0859 15.1342 11.4995C15.687 11.8976 16.0724 12.52 16.1765 13.1935C16.2945 13.9058 16.0973 14.6627 15.6455 15.2256C15.2293 15.755 14.6 16.1106 13.9308 16.1898C13.1972 16.285 12.4275 16.0474 11.8774 15.552C11.3687 15.1023 11.0466 14.4479 11.0094 13.7692C10.9663 13.1201 11.1789 12.4584 11.5941 11.9571C11.9826 11.4814 12.5445 11.1508 13.1499 11.0455Z" fill="#7C46BF"/>
</svg>
