<svg width="73" height="73" viewBox="0 0 73 73" fill="none" xmlns="http://www.w3.org/2000/svg">
<g filter="url(#filter0_d_324_8939)">
<rect x="9" y="5" width="55" height="55" rx="27.5" fill="white"/>
</g>
<path opacity="0.95" fill-rule="evenodd" clip-rule="evenodd" d="M27.3153 14.0054H34.1813L40.3662 25.4046C40.4987 25.6463 40.6922 25.8369 40.9121 25.9578H31.6798L27.3153 14V14.0054ZM36.5 27.7462C41.7469 27.7462 46 32.0561 46 37.3731C46 42.69 41.7469 47 36.5 47C31.2531 46.9973 27 42.6874 27 37.3704C27 32.0535 31.2531 27.7462 36.5 27.7462ZM36.5 31.8145L38.0873 35.7404L42.2662 36.06L39.0678 38.8097L40.0615 42.929L36.5 40.6922L32.9385 42.929L33.9322 38.8097L30.7311 36.0573L34.91 35.7377L36.5 31.8145ZM37.3427 14.0054H45.3773L42.1444 22.8616L37.3427 14.0054Z" fill="#A774E7"/>
<defs>
<filter id="filter0_d_324_8939" x="0.7" y="0.7" width="71.6" height="71.6" filterUnits="userSpaceOnUse" color-interpolation-filters="sRGB">
<feFlood flood-opacity="0" result="BackgroundImageFix"/>
<feColorMatrix in="SourceAlpha" type="matrix" values="0 0 0 0 0 0 0 0 0 0 0 0 0 0 0 0 0 0 127 0" result="hardAlpha"/>
<feOffset dy="4"/>
<feGaussianBlur stdDeviation="4.15"/>
<feComposite in2="hardAlpha" operator="out"/>
<feColorMatrix type="matrix" values="0 0 0 0 0 0 0 0 0 0 0 0 0 0 0 0 0 0 0.25 0"/>
<feBlend mode="normal" in2="BackgroundImageFix" result="effect1_dropShadow_324_8939"/>
<feBlend mode="normal" in="SourceGraphic" in2="effect1_dropShadow_324_8939" result="shape"/>
</filter>
</defs>
</svg>
