<svg width="44" height="43" viewBox="0 0 44 43" fill="none" xmlns="http://www.w3.org/2000/svg">
<path fill-rule="evenodd" clip-rule="evenodd" d="M36.265 13.0581H29.0919C28.6855 13.0741 28.2801 13.006 27.9007 12.8581C27.5213 12.7101 27.1759 12.4854 26.8858 12.1978C26.5957 11.9102 26.3671 11.5657 26.2139 11.1856C26.0608 10.8055 25.9864 10.3979 25.9953 9.98769V2.6575H7.77566C7.74876 2.65797 7.72223 2.66383 7.6976 2.67474C7.67298 2.68564 7.65074 2.70138 7.6322 2.72103C7.60953 2.73781 7.59174 2.76041 7.58066 2.78648C7.56959 2.81254 7.56563 2.84113 7.56921 2.86925V40.1307C7.57393 40.1846 7.59606 40.2355 7.6322 40.2754C7.64974 40.2963 7.67178 40.3129 7.69665 40.3239C7.72151 40.3349 7.74853 40.3401 7.77566 40.339H36.0621C36.1251 40.339 36.1216 40.3072 36.153 40.2754C36.1845 40.2437 36.272 40.1766 36.272 40.1307V13.0581H36.265ZM38.8788 40.9672C38.8779 41.506 38.6653 42.0225 38.2875 42.4036C37.9097 42.7846 37.3976 42.9991 36.8634 43H6.95688C6.42263 42.9991 5.91053 42.7846 5.53275 42.4036C5.15498 42.0225 4.94234 41.506 4.94142 40.9672V2.03283C4.94053 1.7658 4.99236 1.50127 5.09389 1.25466C5.19542 1.00805 5.34461 0.784292 5.53276 0.596438C5.91053 0.21541 6.42263 0.000935845 6.95688 0L27.3354 0C27.6453 0.00295846 27.9465 0.104205 28.1962 0.289396L38.6059 10.9194C38.7318 11.0314 38.824 11.1767 38.8723 11.3389C38.9205 11.5011 38.9228 11.6736 38.8788 11.837V40.9636V40.9672ZM28.4201 9.77241L28.2697 3.39864L35.6492 10.9406L29.3019 10.6547C29.1851 10.6607 29.0684 10.6421 28.9592 10.5999C28.85 10.5578 28.7507 10.4932 28.6677 10.4101C28.5847 10.3271 28.5198 10.2274 28.4772 10.1176C28.4345 10.0078 28.4151 9.89023 28.4201 9.77241Z" fill="#BEBEBE"/>
<path fill-rule="evenodd" clip-rule="evenodd" d="M2.77756 16.3332H41.0783C41.701 16.3351 42.2977 16.5856 42.7377 17.0301C43.1777 17.4746 43.4252 18.0767 43.4262 18.7048V34.6216C43.4243 35.2491 43.1764 35.8503 42.7364 36.2941C42.2965 36.7378 41.7004 36.9878 41.0783 36.9897H2.77756C2.15483 36.9878 1.55818 36.7373 1.11817 36.2928C0.678159 35.8483 0.43061 35.2462 0.429688 34.6181L0.429688 18.7048C0.431534 18.0773 0.679491 17.4761 1.1194 17.0324C1.55931 16.5887 2.15543 16.3386 2.77756 16.3367V16.3332Z" fill="#FF5969"/>
<path d="M6.14062 21.0976H11.8091C13.0443 21.0976 13.968 21.3906 14.5874 21.9835C15.2067 22.5764 15.5076 23.4234 15.5076 24.5175C15.5351 25.0039 15.4594 25.4906 15.2857 25.9453C15.1119 26.3999 14.844 26.8119 14.4999 27.1538C13.8316 27.789 12.8063 28.1031 11.4312 28.1031H9.55921V32.2217H6.14062V21.0976ZM9.55921 25.8515H10.399C10.8917 25.8978 11.3854 25.7733 11.7986 25.4986C11.9269 25.3907 12.0295 25.2551 12.0985 25.1017C12.1676 24.9483 12.2014 24.7812 12.1975 24.6127C12.2006 24.4485 12.1712 24.2853 12.1111 24.1326C12.051 23.9799 11.9615 23.8408 11.8476 23.7234C11.6167 23.4799 11.1793 23.3705 10.5354 23.3705H9.55921V25.8409V25.8515ZM17.3271 21.0976H22.3938C23.22 21.0675 24.0438 21.2068 24.8151 21.507C25.4109 21.766 25.9338 22.1698 26.3372 22.6823C26.745 23.2037 27.0417 23.8044 27.2085 24.4469C27.3934 25.1504 27.4852 25.8754 27.4814 26.6032C27.5212 27.5429 27.3847 28.4816 27.079 29.3701C26.8352 29.9999 26.4565 30.5675 25.9698 31.0324C25.538 31.4509 25.0103 31.7552 24.4337 31.9182C23.7722 32.109 23.0887 32.211 22.4008 32.2217H17.3271V21.0976ZM20.7212 23.614V29.6913H21.561C22.0808 29.725 22.6016 29.6431 23.0866 29.4513C23.4073 29.2624 23.6542 28.9685 23.7864 28.6184C23.9909 27.9956 24.0775 27.3395 24.0418 26.6844C24.0418 25.508 23.8517 24.7022 23.4715 24.2669C23.0901 23.8328 22.4533 23.614 21.568 23.614H20.7212ZM29.2694 21.0976H37.6987V23.4905H32.702V25.4315H36.9849V27.6867H32.702V32.2217H29.2799V21.0976H29.2694Z" fill="white"/>
</svg>
