<svg width="28" height="28" viewBox="0 0 28 28" fill="none" xmlns="http://www.w3.org/2000/svg">
<path d="M13.1893 0.590759H14.01C15.9076 0.657203 17.7946 1.10158 19.5051 1.93132C22.3856 3.31653 24.7531 5.74464 26.0421 8.67133C26.7735 10.2878 27.1535 12.0525 27.2152 13.8231V14.5593C27.1541 16.4925 26.698 18.4162 25.8449 20.1543C24.9492 21.9829 23.6437 23.6099 22.0448 24.8713C20.447 26.1395 18.5611 27.0448 16.5678 27.4817C15.7061 27.68 14.8227 27.7714 13.9398 27.8059H13.2483C10.8935 27.7374 8.55843 27.0602 6.54706 25.8313C3.80747 24.1691 1.68288 21.5162 0.684101 18.4693C0.265773 17.2143 0.0478392 15.8982 0 14.5773V13.8661C0.0287035 13.0672 0.108967 12.2683 0.271089 11.4848C0.720777 9.23955 1.75942 7.11815 3.24828 5.37893C4.36294 4.06229 5.73751 2.9689 7.26093 2.15989C9.08201 1.18928 11.129 0.666239 13.1893 0.590759ZM6.97442 7.51575C6.48646 7.98085 6.08834 8.55864 5.90974 9.21404C5.85605 9.36978 5.89273 9.53297 5.9193 9.69031C6.167 10.9931 6.70599 12.2242 7.36192 13.3707C8.38302 15.1339 9.72677 16.695 11.2268 18.068C12.5254 19.2459 13.9675 20.2798 15.5573 21.0277C16.4748 21.4487 17.4358 21.8154 18.442 21.9414C19.2298 21.7282 19.9171 21.227 20.456 20.6237C20.8111 20.2288 21.1343 19.795 21.3421 19.3039C21.1864 18.6506 20.8196 18.0701 20.4039 17.5519C20.0207 17.0873 19.5896 16.661 19.1123 16.2942C18.6424 15.9429 18.1236 15.6319 17.5448 15.5054C17.2487 15.7106 16.926 15.886 16.6693 16.1406C16.4003 16.5031 16.2281 16.9252 16.0394 17.3324C14.651 17.2186 13.3966 16.451 12.4265 15.4858C11.4628 14.5104 10.683 13.2697 10.5204 11.8856C10.9706 11.6857 11.4474 11.5151 11.837 11.2063C12.0613 10.9549 12.2729 10.6827 12.4408 10.3925C12.1777 9.36181 11.4607 8.51825 10.7011 7.80491C10.0595 7.22021 9.32173 6.72215 8.49305 6.4484C7.91048 6.67697 7.42199 7.08839 6.97442 7.51575Z" fill="#7C46BF"/>
</svg>
