<svg width="13" height="15" viewBox="0 0 13 15" fill="none" xmlns="http://www.w3.org/2000/svg">
<path fill-rule="evenodd" clip-rule="evenodd" d="M12.6697 7.98719C12.6697 11.4858 9.83349 14.322 6.33485 14.322C2.83621 14.322 0 11.4858 0 7.98719C0 4.48855 2.83621 1.65234 6.33485 1.65234C9.83349 1.65234 12.6697 4.48855 12.6697 7.98719ZM8.70399 7.64991C9.12565 7.89168 9.12689 8.1958 8.70399 8.46874L5.43783 10.7384C5.02705 10.9641 4.74891 10.8302 4.71922 10.3425L4.70586 5.59282C4.6962 5.1432 5.05551 5.01625 5.39997 5.23228L8.70399 7.64991Z" fill="#BEBEBE"/>
<path fill-rule="evenodd" clip-rule="evenodd" d="M6.44771 0.577026C4.15133 0.577028 1.72719 2.36102 0.408873 5.26335C3.19525 0.347994 8.75545 -0.573028 12.3849 5.26335C10.8652 2.40096 9.00276 0.577025 6.44771 0.577026Z" fill="#BEBEBE"/>
<path fill-rule="evenodd" clip-rule="evenodd" d="M6.50126 0C5.33638 4.03656e-07 3.91945 0.596635 3.25071 1.56728C4.62791 0.0815465 7.8705 -0.209267 9.7518 1.56728C8.98088 0.609993 7.79736 -4.49127e-07 6.50126 0Z" fill="#BEBEBE"/>
</svg>
