<svg width="16" height="15" viewBox="0 0 16 15" fill="none" xmlns="http://www.w3.org/2000/svg">
<path fill-rule="evenodd" clip-rule="evenodd" d="M7.45474 0C11.5727 0 14.9095 3.33859 14.9095 7.45474C14.9095 11.5727 11.5709 14.9095 7.45474 14.9095C3.33859 14.9095 0 11.5727 0 7.45474C0 3.33859 3.33859 0 7.45474 0Z" fill="#FFED33"/>
<path fill-rule="evenodd" clip-rule="evenodd" d="M7.61006 2.2547C10.5789 2.2547 12.9877 4.66168 12.9877 7.63233C12.9877 10.603 10.5789 13.0082 7.61006 13.0082C4.64121 13.0082 2.23242 10.6012 2.23242 7.63052C2.23242 4.65986 4.6394 2.2547 7.61006 2.2547Z" fill="#EA9901"/>
<path fill-rule="evenodd" clip-rule="evenodd" d="M7.74292 0.00549316C8.22867 0.023618 8.70354 0.0888674 9.16028 0.195804L8.91016 1.12742C8.53317 1.04042 8.14167 0.987858 7.74292 0.969733V0.00549316ZM7.45474 2.07897C10.4236 2.07897 12.8324 4.48595 12.8324 7.45661C12.8324 10.4255 10.4254 12.8342 7.45474 12.8342C4.48589 12.8342 2.0771 10.4273 2.0771 7.45661C2.07892 4.48595 4.48589 2.07897 7.45474 2.07897ZM9.71672 0.349865C10.1753 0.494863 10.6139 0.683361 11.029 0.911734L10.5468 1.74548C10.2043 1.5606 9.84359 1.40473 9.46659 1.28148L9.71672 0.349865ZM11.5238 1.20898C11.9225 1.46817 12.2923 1.76541 12.633 2.09347L11.9515 2.77497C11.6706 2.50491 11.3661 2.26022 11.0416 2.04454L11.5238 1.20898ZM13.0336 2.50853C13.3453 2.86015 13.6226 3.23896 13.8655 3.64496L13.0299 4.12708C12.8306 3.79539 12.604 3.48183 12.3503 3.19184L13.0336 2.50853ZM14.1392 4.15245C14.344 4.5657 14.5125 5.00251 14.6376 5.45563L13.706 5.70575C13.6027 5.33419 13.4667 4.97713 13.3018 4.63638L14.1392 4.15245ZM14.7717 6.0175C14.8587 6.46155 14.9059 6.92192 14.9095 7.39136H13.9452C13.9416 7.00892 13.9054 6.63193 13.8365 6.26762L14.7717 6.0175ZM14.8932 7.96773C14.8624 8.42991 14.788 8.88122 14.6775 9.31621L13.7459 9.06609C13.8365 8.71084 13.8981 8.34472 13.9271 7.96773H14.8932ZM14.5107 9.86902C14.3639 10.2986 14.179 10.7118 13.9597 11.1015L13.126 10.6194C13.3036 10.3022 13.4559 9.96689 13.5791 9.6189L14.5107 9.86902ZM13.6571 11.5927C13.4087 11.9642 13.1278 12.3122 12.8179 12.6331L12.1364 11.9516C12.3865 11.6906 12.6167 11.4096 12.8215 11.1088L13.6571 11.5927ZM12.401 13.0336C12.0711 13.3272 11.7141 13.5919 11.3353 13.822L10.8531 12.9865C11.1595 12.798 11.4495 12.5841 11.7177 12.3503L12.401 13.0336ZM10.8314 14.103C10.4417 14.3005 10.0321 14.4655 9.60616 14.5942L9.35603 13.6625C9.69859 13.5574 10.0303 13.4251 10.3475 13.2656L10.8314 14.103ZM9.04791 14.7392C8.6256 14.8316 8.1888 14.8878 7.74292 14.9041V13.9399C8.10361 13.9235 8.45523 13.88 8.79779 13.8075L9.04791 14.7392ZM7.16655 14.9041C6.72068 14.8878 6.28388 14.8316 5.86157 14.7392L6.11169 13.8075C6.45425 13.88 6.80587 13.9254 7.16655 13.9399V14.9041ZM5.30332 14.5942C4.87739 14.4655 4.46958 14.3005 4.0799 14.103L4.56202 13.2674C4.8792 13.4251 5.20907 13.5592 5.55345 13.6644L5.30332 14.5942ZM3.57603 13.822C3.19722 13.59 2.84016 13.3254 2.51029 13.0336L3.19359 12.3503C3.46365 12.5859 3.75365 12.798 4.05996 12.9865L3.57603 13.822ZM2.0916 12.6331C1.78167 12.3122 1.50074 11.9642 1.25243 11.5927L2.08979 11.1106C2.2946 11.4096 2.52298 11.6924 2.7731 11.9534L2.0916 12.6331ZM0.951553 11.1015C0.732243 10.7118 0.54737 10.2986 0.400559 9.86902L1.33399 9.6189C1.45724 9.96689 1.60948 10.3022 1.78711 10.6194L0.951553 11.1015ZM0.23381 9.3144C0.121436 8.8794 0.048937 8.4281 0.0181248 7.96591H0.984178C1.01318 8.3411 1.0748 8.70903 1.16543 9.06428L0.23381 9.3144ZM0 7.38954C0.00362496 6.92011 0.0507495 6.46155 0.137749 6.01568L1.07118 6.26581C1.00412 6.63011 0.966053 7.0053 0.962428 7.38954H0ZM0.271872 5.45563C0.396934 5.00251 0.565494 4.56751 0.770305 4.15245L1.60586 4.63457C1.44092 4.97532 1.30499 5.33238 1.20168 5.70394L0.271872 5.45563ZM1.0458 3.64496C1.28686 3.23896 1.56598 2.86015 1.87773 2.50853L2.56104 3.19184C2.30729 3.48183 2.08073 3.79539 1.88136 4.12708L1.0458 3.64496ZM2.27648 2.09166C2.61722 1.7636 2.98878 1.46635 3.38572 1.20717L3.86784 2.04272C3.5434 2.25841 3.23709 2.50309 2.95797 2.77315L2.27648 2.09166ZM3.88052 0.911734C4.29558 0.685174 4.7342 0.496676 5.19276 0.349865L5.44288 1.28148C5.0677 1.40473 4.7052 1.55879 4.36264 1.74548L3.88052 0.911734ZM5.74919 0.195804C6.20594 0.0888674 6.68081 0.023618 7.16655 0.00549316V0.969733C6.766 0.987858 6.37631 1.04042 5.99932 1.12742L5.74919 0.195804Z" fill="#FAC900"/>
<path fill-rule="evenodd" clip-rule="evenodd" d="M14.2219 4.15411C14.8128 5.20354 15.1481 6.41428 15.1481 7.70477C15.1481 9.70756 14.3361 11.5219 13.022 12.8359C11.7098 14.15 9.89549 14.9619 7.89089 14.9619C7.73139 14.9619 7.57189 14.9565 7.41602 14.9456L7.42327 14.9112H7.45408C11.572 14.9112 14.9088 11.5726 14.9088 7.45646C14.9088 6.28016 14.6369 5.16729 14.1512 4.17768C14.1748 4.16861 14.1983 4.16136 14.2219 4.15411Z" fill="#D49000"/>
<g clip-path="url(#clip0_658_246)">
<path fill-rule="evenodd" clip-rule="evenodd" d="M9.96239 9.29219L9.93068 8.11847L8.00187 8.67568C7.82807 8.71384 7.65662 8.73205 7.48869 8.73263C7.30843 8.73322 7.13111 8.71384 6.95673 8.67568L5.11423 8.11259V9.30276C5.16707 9.92104 6.94087 10.1101 7.48517 10.1359C7.92143 10.1571 9.64473 9.92926 9.87138 9.57403C9.92011 9.49652 9.95064 9.40258 9.96239 9.29219ZM10.7439 7.27355V8.70797H10.7891C10.8202 8.70797 10.8455 8.73322 10.8455 8.76434V9.1501C10.8455 9.18063 10.8202 9.20647 10.7891 9.20647H10.7439V9.34151C10.8014 9.35208 10.8455 9.40317 10.8455 9.46364C10.8455 9.53175 10.7891 9.58812 10.721 9.58812H10.4985C10.4303 9.58812 10.374 9.53234 10.374 9.46364C10.374 9.40317 10.418 9.35208 10.4756 9.34151V9.20647H10.4303C10.3998 9.20647 10.374 9.18122 10.374 9.1501V8.76434C10.374 8.73322 10.3992 8.70797 10.4303 8.70797H10.4756V7.35751L8.12811 8.08676C7.703 8.18775 7.2779 8.1948 6.8528 8.08676L4.26167 7.31347L4.0274 7.2436C3.73558 7.12441 3.80839 6.84433 4.08024 6.77975L7.01074 5.90488C7.31313 5.81857 7.61493 5.80506 7.91732 5.90488L10.795 6.76918C11.1079 6.84551 11.1696 7.13498 10.8055 7.25417L10.7439 7.27355Z" fill="#EA9901"/>
</g>
<g clip-path="url(#clip1_658_246)">
<path fill-rule="evenodd" clip-rule="evenodd" d="M9.84222 9.05055L9.80909 7.82385L7.79322 8.40621C7.61158 8.4461 7.43239 8.46512 7.25689 8.46573C7.06849 8.46635 6.88317 8.4461 6.70091 8.40621L4.77526 7.81771V9.0616C4.83049 9.70778 6.68434 9.90537 7.2532 9.93237C7.70915 9.95447 9.51023 9.71637 9.74711 9.3451C9.79804 9.2641 9.82995 9.16592 9.84222 9.05055ZM10.659 6.9408V8.43996H10.7063C10.7388 8.43996 10.7652 8.46635 10.7652 8.49887V8.90204C10.7652 8.93395 10.7388 8.96096 10.7063 8.96096H10.659V9.1021C10.7191 9.11314 10.7652 9.16653 10.7652 9.22974C10.7652 9.30092 10.7063 9.35983 10.6351 9.35983H10.4025C10.3313 9.35983 10.2724 9.30153 10.2724 9.22974C10.2724 9.16653 10.3184 9.11314 10.3786 9.1021V8.96096H10.3313C10.2994 8.96096 10.2724 8.93457 10.2724 8.90204V8.49887C10.2724 8.46635 10.2988 8.43996 10.3313 8.43996H10.3786V7.02855L7.92516 7.79071C7.48087 7.89626 7.03658 7.90362 6.59229 7.79071L3.88423 6.98252L3.63938 6.9095C3.33439 6.78493 3.41048 6.49221 3.69461 6.42471L6.75737 5.51036C7.0734 5.42015 7.38882 5.40604 7.70486 5.51036L10.7124 6.41366C11.0395 6.49344 11.1039 6.79597 10.7234 6.92055L10.659 6.9408Z" fill="#FFED33"/>
</g>
<defs>
<clipPath id="clip0_658_246">
<rect width="7.21499" height="4.3021" fill="white" transform="translate(3.83984 5.83502)"/>
</clipPath>
<clipPath id="clip1_658_246">
<rect width="7.54062" height="4.49627" fill="white" transform="translate(3.44336 5.43735)"/>
</clipPath>
</defs>
</svg>
