<svg width="49" height="49" viewBox="0 0 49 49" fill="none" xmlns="http://www.w3.org/2000/svg">
<path d="M24.2053 48.3887C37.5735 48.3887 48.4106 37.5565 48.4106 24.1943C48.4106 10.8322 37.5735 0 24.2053 0C10.8371 0 0 10.8322 0 24.1943C0 37.5565 10.8371 48.3887 24.2053 48.3887Z" fill="#EFE6FB"/>
<path fill-rule="evenodd" clip-rule="evenodd" d="M37.4421 14.7726C37.4421 15.9226 36.5013 16.8634 35.3513 16.8634H30.9229C31.2336 16.241 31.4087 15.5388 31.4087 14.7956C31.4087 14.0342 31.2251 13.3155 30.8997 12.6818H35.3513C36.5013 12.6818 37.4421 13.6226 37.4421 14.7726ZM30.3054 32.855C30.3054 34.8062 28.7236 36.3878 26.7724 36.3878C24.8213 36.3878 23.2397 34.8062 23.2397 32.855C23.2397 30.9041 24.8213 29.3222 26.7724 29.3222C28.7236 29.3222 30.3054 30.9039 30.3054 32.855ZM37.4624 32.8318C37.4624 33.9818 36.5214 34.9226 35.3714 34.9226H30.9229C31.2336 34.3001 31.4087 33.5979 31.4087 32.855C31.4087 32.0935 31.2251 31.3749 30.8997 30.7411H35.3714C36.5216 30.7411 37.4624 31.682 37.4624 32.8318ZM22.6215 34.9226H13.3549C12.2049 34.9226 11.2641 33.9818 11.2641 32.8318C11.2641 31.6818 12.2049 30.7409 13.3549 30.7409H22.6447C22.3195 31.3747 22.1357 32.0933 22.1357 32.8548C22.1357 33.5979 22.3108 34.3001 22.6215 34.9226ZM17.302 23.7837C17.302 25.7347 18.8838 27.3165 20.835 27.3165C22.7859 27.3165 24.3677 25.7347 24.3677 23.7837C24.3677 21.8326 22.7859 20.2508 20.835 20.2508C18.8838 20.2506 17.302 21.8324 17.302 23.7837ZM11.2617 23.7605C11.2617 24.9105 12.203 25.8513 13.3525 25.8513H16.6951C16.3844 25.2287 16.2093 24.5358 16.2093 23.7837C16.2093 23.0314 16.3929 22.3036 16.7183 21.6697H13.3525C12.2025 21.6697 11.2617 22.6105 11.2617 23.7605ZM24.9963 25.8513H35.3739C36.5237 25.8513 37.4648 24.9105 37.4648 23.7605C37.4648 22.6103 36.5239 21.6695 35.3739 21.6695H24.9733C25.2985 22.3034 25.4823 23.0312 25.4823 23.7835C25.4823 24.5358 25.307 25.2287 24.9963 25.8513ZM30.3054 14.7956C30.3054 16.7468 28.7236 18.3284 26.7724 18.3284C24.8213 18.3284 23.2395 16.747 23.2395 14.7956C23.2395 12.8445 24.8211 11.2629 26.7722 11.2629C28.7234 11.2629 30.3054 12.8445 30.3054 14.7956ZM22.6215 16.8634H13.3628C12.2128 16.8634 11.272 15.9224 11.272 14.7726C11.272 13.6226 12.2128 12.6818 13.3628 12.6818H22.6447C22.3195 13.3155 22.1357 14.0342 22.1357 14.7956C22.1357 15.5388 22.3108 16.241 22.6215 16.8634Z" fill="#A774E7"/>
</svg>
