<svg width="26" height="26" viewBox="0 0 26 26" fill="none" xmlns="http://www.w3.org/2000/svg">
<rect width="26" height="26" rx="13" fill="#5BBCFF"/>
<path d="M13 5C8.58169 5 5 8.58169 5 13C5 17.4183 8.58169 21 13 21C17.4183 21 21 17.4183 21 13C21 8.58169 17.4183 5 13 5ZM13.8709 17.078C13.8603 17.1349 13.8427 17.19 13.8213 17.2452C13.7982 17.2985 13.7716 17.35 13.7396 17.398C13.7058 17.446 13.67 17.4921 13.6276 17.5332C13.5867 17.5739 13.5422 17.6112 13.4923 17.6434C13.4443 17.6754 13.3927 17.7038 13.3396 17.7252C13.286 17.7483 13.2311 17.7643 13.1742 17.7748C13.1156 17.7872 13.0587 17.7927 13 17.7927C12.7653 17.7927 12.536 17.6985 12.3707 17.5332C12.3298 17.4923 12.2942 17.446 12.2604 17.398C12.2284 17.3499 12.2018 17.2983 12.1787 17.2452C12.1573 17.1899 12.1396 17.1349 12.1289 17.078C12.1164 17.0213 12.1111 16.9627 12.1111 16.904C12.1111 16.8471 12.1164 16.7884 12.1289 16.7316C12.1396 16.6747 12.1573 16.6176 12.1787 16.5644C12.2018 16.5111 12.2284 16.4596 12.2604 16.4116C12.2942 16.362 12.3298 16.3175 12.3707 16.2764C12.5769 16.0702 12.8844 15.9742 13.1742 16.0329C13.2311 16.0453 13.286 16.0613 13.3396 16.0844C13.3929 16.1058 13.4444 16.1342 13.4923 16.1662C13.542 16.1984 13.5865 16.2357 13.6276 16.2764C13.67 16.3173 13.7056 16.3618 13.7396 16.4116C13.7716 16.4597 13.7982 16.5113 13.8213 16.5644C13.8427 16.6178 13.8604 16.6747 13.8709 16.7316C13.8836 16.7884 13.8889 16.8471 13.8889 16.904C13.8889 16.9627 13.8836 17.0213 13.8709 17.078ZM15.7328 11.1707C15.7328 11.8866 15.458 12.5634 14.9588 13.0764C14.9516 13.0837 14.9445 13.0908 14.9372 13.0978L13.7111 14.2555V14.7564C13.7111 15.1492 13.3927 15.4676 13 15.4676C12.6073 15.4676 12.2889 15.1492 12.2889 14.7564V13.9488C12.2889 13.7531 12.3696 13.566 12.5118 13.4318L13.9488 12.0752C14.1822 11.8304 14.3106 11.5097 14.3106 11.1708V11.1172C14.3106 10.7607 14.17 10.4272 13.9145 10.1783C13.6592 9.9296 13.3241 9.79787 12.9648 9.80693C12.2613 9.82507 11.6892 10.4332 11.6892 11.1627C11.6892 11.5554 11.3708 11.8738 10.9781 11.8738C10.5854 11.8738 10.267 11.5554 10.267 11.1627C10.267 9.66898 11.4608 8.42293 12.9282 8.38524C13.6718 8.36587 14.3749 8.64107 14.907 9.15982C15.4395 9.67858 15.7328 10.3739 15.7328 11.1172V11.1707Z" fill="white"/>
</svg>
