<svg width="49" height="49" viewBox="0 0 49 49" fill="none" xmlns="http://www.w3.org/2000/svg">
<path d="M24.2053 48.3887C37.5735 48.3887 48.4106 37.5565 48.4106 24.1943C48.4106 10.8322 37.5735 0 24.2053 0C10.8371 0 0 10.8322 0 24.1943C0 37.5565 10.8371 48.3887 24.2053 48.3887Z" fill="#EFE6FB"/>
<path d="M14.2395 18.2715H20.1768L25.0881 13.2693C25.263 13.0943 25.4993 12.9961 25.7457 12.9961C25.9921 12.9961 26.2284 13.0943 26.4033 13.2693C26.489 13.357 26.5564 13.4612 26.6016 13.5755C26.6467 13.6899 26.6688 13.8123 26.6664 13.9354V34.5783C26.6662 34.7658 26.6107 34.949 26.5069 35.1045C26.4032 35.26 26.2559 35.3809 26.0838 35.4518C25.9118 35.5226 25.7227 35.5402 25.5407 35.5024C25.3587 35.4645 25.192 35.3728 25.0617 35.2391L20.2083 31.2586H14.2395C13.4513 31.2565 12.6959 30.94 12.1381 30.3783C11.5802 29.8165 11.2652 29.055 11.2617 28.2599V21.2754C11.2652 20.4798 11.58 19.7178 12.1377 19.1552C12.6954 18.5926 13.4508 18.275 14.2395 18.2715ZM29.0843 18.1043C29.0402 17.9971 29.0175 17.8823 29.0175 17.7663C29.0175 17.6503 29.0401 17.5354 29.084 17.4282C29.1728 17.2117 29.3433 17.0397 29.5578 16.95C29.7723 16.8602 30.0134 16.8601 30.228 16.9497C30.4426 17.0393 30.6131 17.2112 30.7021 17.4276C31.5123 19.3913 31.9516 21.8619 31.9884 24.3272C32.0253 26.7924 31.6701 29.1701 30.8994 31.0967C30.8132 31.3131 30.6454 31.4861 30.4327 31.5777C30.2201 31.6693 29.9801 31.6719 29.7656 31.585C29.5511 31.498 29.3795 31.3287 29.2888 31.1142C29.198 30.8997 29.1954 30.6576 29.2816 30.4412C29.9655 28.7323 30.2786 26.5483 30.247 24.3378C30.2154 22.1273 29.8182 19.8637 29.0869 18.1017L29.0843 18.1043ZM33.4432 15.3073C33.3427 15.0962 33.3295 14.8534 33.4064 14.6325C33.4834 14.4115 33.6442 14.2304 33.8535 14.1291C34.0628 14.0278 34.3035 14.0144 34.5225 14.0921C34.7415 14.1697 34.921 14.3319 35.0215 14.5431C36.4725 17.6603 37.2337 21.0586 37.2522 24.5023C37.2785 27.8406 36.6104 31.1683 35.1478 34.0051C35.0999 34.1143 35.0305 34.2126 34.9437 34.2938C34.857 34.3751 34.7547 34.4376 34.6432 34.4776C34.5317 34.5177 34.4132 34.5343 34.2951 34.5266C34.177 34.5189 34.0616 34.487 33.9562 34.4328C33.8507 34.3786 33.7573 34.3032 33.6816 34.2114C33.606 34.1195 33.5497 34.0131 33.5162 33.8986C33.4827 33.784 33.4727 33.6638 33.4869 33.5452C33.501 33.4267 33.5389 33.3123 33.5984 33.209C34.9136 30.6323 35.5239 27.5912 35.5003 24.5262C35.4859 21.3422 34.783 18.1997 33.4405 15.3179L33.4432 15.3073Z" fill="#A774E7"/>
</svg>
