<svg width="49" height="49" viewBox="0 0 49 49" fill="none" xmlns="http://www.w3.org/2000/svg">
<path d="M24.2053 48.3887C37.5735 48.3887 48.4106 37.5565 48.4106 24.1943C48.4106 10.8322 37.5735 0 24.2053 0C10.8371 0 0 10.8322 0 24.1943C0 37.5565 10.8371 48.3887 24.2053 48.3887Z" fill="#EFE6FB"/>
<path d="M23.061 22.7233L29.7153 18.4841C29.7618 18.4492 29.827 18.4561 29.8665 18.498L30.5087 19.1821C30.5483 19.224 30.5506 19.2914 30.5134 19.3356L25.4714 25.1942C24.7548 25.9644 23.9893 26.1156 23.3727 25.9155C23.0656 25.8155 22.798 25.6317 22.5933 25.392C22.3885 25.1547 22.2466 24.8639 22.1885 24.5521C22.0744 23.9309 22.3025 23.2352 23.0563 22.7256L23.061 22.7233ZM14.0287 35.099C13.3191 34.4312 12.6793 33.6913 12.1185 32.8933C11.5625 32.1022 11.0855 31.2506 10.6969 30.3548C10.3177 29.4754 10.0245 28.5493 9.82441 27.5861C9.63362 26.6508 9.53125 25.6828 9.53125 24.6917C9.53125 22.7559 9.91748 20.9108 10.6132 19.2263C11.3391 17.4766 12.4001 15.9014 13.7193 14.5845C15.0362 13.2676 16.6114 12.2043 18.361 11.4807C20.0456 10.7827 21.8906 10.3965 23.8264 10.3965C25.7576 10.3965 27.598 10.7827 29.2779 11.4807C31.0276 12.2067 32.6004 13.2723 33.9196 14.5915C35.2412 15.9131 36.3068 17.4906 37.0327 19.2379C37.7331 20.9224 38.1216 22.7652 38.1216 24.6917C38.1216 25.634 38.0286 26.5554 37.8517 27.4488C37.6703 28.3655 37.398 29.252 37.0467 30.1012C36.6884 30.9644 36.2487 31.7881 35.7345 32.5559C35.2156 33.333 34.6223 34.0566 33.9662 34.7197C33.922 34.7639 33.8475 34.7639 33.8033 34.7197L33.089 34.0078C33.075 34.0031 33.0611 33.9938 33.0495 33.9822L31.0578 31.9905C31.0136 31.9463 31.0136 31.8718 31.0578 31.8276L32.1025 30.783C32.1467 30.7388 32.2211 30.7388 32.2654 30.783L33.8033 32.3209C34.129 31.8974 34.4292 31.4554 34.6991 30.9947C34.9899 30.5014 35.2458 29.9849 35.4669 29.4521C35.7647 28.7308 35.9997 27.9746 36.1579 27.1929C36.3068 26.4669 36.3906 25.7154 36.4069 24.9499H34.2873C34.2244 24.9499 34.1709 24.8988 34.1709 24.8336V23.3562C34.1709 23.2933 34.2221 23.2398 34.2873 23.2398H36.3254C36.1672 21.8787 35.788 20.5804 35.2272 19.3822C34.6479 18.1467 33.8731 17.0206 32.9424 16.0387L31.579 17.4022C31.5348 17.4464 31.4603 17.4464 31.4161 17.4022L30.3714 16.3575C30.3272 16.3133 30.3272 16.2388 30.3714 16.1946L31.686 14.88C30.653 14.0494 29.4873 13.377 28.2262 12.9023C27.0047 12.444 25.6948 12.1694 24.329 12.1159V13.9842C24.329 14.0471 24.2778 14.1006 24.2127 14.1006H22.7329C22.6701 14.1006 22.6166 14.0494 22.6166 13.9842V12.1624C21.2601 12.2904 19.9641 12.6371 18.7682 13.1606C17.5327 13.7027 16.402 14.4379 15.4131 15.3244L16.7789 16.6902C16.8231 16.7344 16.8231 16.8088 16.7789 16.8531L15.7342 17.8977C15.69 17.9419 15.6155 17.9419 15.5713 17.8977L14.2219 16.5483C13.354 17.572 12.6444 18.7377 12.1371 20.0057C11.6485 21.2389 11.3437 22.5628 11.2623 23.9448H13.3633C13.4261 23.9448 13.4796 23.996 13.4796 24.0611V25.5409C13.4796 25.6037 13.4285 25.6573 13.3633 25.6573H11.2763C11.3275 26.3413 11.4345 27.0067 11.5904 27.6536C11.7579 28.3539 11.9859 29.031 12.2674 29.6824C12.5117 30.2478 12.7956 30.7899 13.1144 31.3065C13.4145 31.7927 13.7472 32.2581 14.1102 32.6955L15.7947 31.011C15.8389 30.9668 15.9134 30.9668 15.9576 31.011L17.0023 32.0557C17.0465 32.0999 17.0465 32.1743 17.0023 32.2185C16.039 33.1818 15.12 34.1055 14.1893 35.0943C14.1474 35.1409 14.0753 35.1432 14.0287 35.099Z" fill="#A774E7"/>
</svg>
