<svg width="131" height="131" viewBox="0 0 131 131" fill="none" xmlns="http://www.w3.org/2000/svg">
<path d="M115.614 78.715L119.435 96.5638L102.05 102.022L96.5915 119.407L78.7155 115.613L65.0697 127.84L51.4238 115.613L33.5751 119.434L27.9803 102.049L10.5955 96.591L14.5255 78.715L2.29883 65.0692L14.5255 51.4233L10.7047 33.6838C30.6003 27.2702 27.953 28.5529 28.4442 26.97L33.6842 10.595L51.4238 14.525L65.0697 2.29834L78.7155 14.525L96.5642 10.7042L102.023 28.089L119.407 33.6838L115.614 51.4233L127.84 65.0692L115.614 78.715Z" fill="#A774E7"/>
<path d="M106.007 100.548C106.007 100.848 106.58 100.548 102.05 102.049L96.5915 119.434L78.7155 115.613L65.0697 127.84L51.4238 115.613L33.5751 119.434L27.9803 102.049L10.5955 96.5909L14.5255 78.7149L2.29883 65.0691L14.5255 51.4232L10.7047 33.6837C30.6003 27.2701 27.953 28.5528 28.4442 26.9699C38.4329 26.4438 48.4241 27.9569 57.8092 31.4169C67.1942 34.8769 75.7765 40.2114 83.0333 47.0954C90.2901 53.9794 96.0694 62.2688 100.019 71.4584C103.969 80.6481 106.006 90.5457 106.007 100.548Z" fill="#8547D4"/>
<path d="M106.008 65.0692C106.004 71.4713 104.499 77.7833 101.613 83.4981C98.7267 89.2129 94.5406 94.1712 89.3907 97.9746C84.2408 101.778 78.2706 104.321 71.9598 105.398C65.6489 106.475 59.1734 106.058 53.0532 104.178C46.9331 102.299 41.3391 99.0105 36.7206 94.5769C32.102 90.1434 28.5877 84.6884 26.4599 78.6501C24.3321 72.6119 23.6502 66.1588 24.4689 59.8092C25.2877 53.4596 27.5842 47.3906 31.1741 42.0896C53.908 8.79376 106.008 24.8958 106.008 65.0692Z" fill="#EDEBF2"/>
<path d="M95.0909 75.9858C95.0958 84.1776 92.643 92.1825 88.0496 98.9654C80.1703 104.328 70.6669 106.772 61.1781 105.879C51.6893 104.985 42.8098 100.808 36.0705 94.0687C29.3312 87.3294 25.1545 78.4498 24.2606 68.961C23.3667 59.4722 25.8116 49.9689 31.1738 42.0896C37.3301 37.9139 44.5079 35.4946 51.9358 35.0916C59.3638 34.6887 66.7611 36.3173 73.333 39.8025C79.905 43.2877 85.403 48.4977 89.2365 54.8728C93.07 61.2478 95.0939 68.5469 95.0909 75.9858Z" fill="#DAD7E5" fill-opacity="0.34"/>
<path d="M88.2673 56.0084L62.6677 81.608C61.1326 83.1413 59.0516 84.0025 56.8819 84.0025C54.7122 84.0025 52.6312 83.1413 51.096 81.608L41.8715 72.3834C40.7857 71.2977 40.1758 69.8251 40.1758 68.2897C40.1758 66.7542 40.7857 65.2817 41.8715 64.1959C42.9572 63.1102 44.4298 62.5002 45.9652 62.5002C47.5007 62.5002 48.9732 63.1102 50.059 64.1959L56.8819 71.0188C87.9125 39.9882 78.0329 49.8951 80.0798 47.8209C81.1655 46.7352 82.6381 46.1252 84.1735 46.1252C85.709 46.1252 87.1816 46.7352 88.2673 47.8209C89.353 48.9067 89.963 50.3792 89.963 51.9147C89.963 53.4501 89.353 54.9227 88.2673 56.0084Z" fill="#A774E7"/>
<path d="M85.5389 58.7376L62.6685 81.608C61.1334 83.1412 59.0524 84.0025 56.8827 84.0025C54.713 84.0025 52.632 83.1412 51.0968 81.608L41.8723 72.3834C41.0261 71.5389 40.4637 70.4519 40.2632 69.2733C40.0627 68.0947 40.234 66.883 40.7533 65.8061C41.8301 65.2868 43.0419 65.1155 44.2205 65.316C45.3991 65.5165 46.4861 66.0789 47.3306 66.9251L54.1535 73.748C86.4123 41.4892 75.441 52.4878 77.7881 50.1407C78.9281 49.1129 80.4297 48.58 81.9626 48.6594C83.4955 48.7387 84.9341 49.4237 85.962 50.5637C86.9898 51.7037 87.5226 53.2054 87.4433 54.7383C87.364 56.2712 86.6789 57.7098 85.5389 58.7376Z" fill="#8547D4"/>
</svg>
