<svg width="16" height="15" viewBox="0 0 16 15" fill="none" xmlns="http://www.w3.org/2000/svg">
<path d="M11.0431 0.746603L12.8767 4.19978C12.9378 4.31475 12.8543 4.45337 12.7242 4.45337H3.68461C3.55438 4.45337 3.47106 4.31475 3.53213 4.19978L5.36568 0.746603C5.39566 0.690188 5.45431 0.654907 5.51817 0.654907L10.8906 0.654907C10.9545 0.654907 11.0132 0.690188 11.0431 0.746603Z" fill="#BEBEBE"/>
<path d="M11.0431 10.4161L12.8767 13.8692C12.9378 13.9842 12.8543 14.1229 12.7242 14.1229H3.68461C3.55438 14.1229 3.47106 13.9843 3.53213 13.8692L5.36568 10.4161C5.39566 10.3597 5.45431 10.3244 5.51817 10.3244H10.8906C10.9545 10.3244 11.0132 10.3597 11.0431 10.4161Z" fill="#BEBEBE"/>
<path d="M11.0431 5.58141L12.8767 9.03459C12.9378 9.14956 12.8543 9.28827 12.7242 9.28827H3.68461C3.55438 9.28827 3.47106 9.14965 3.53213 9.03459L5.36568 5.58141C5.39566 5.52499 5.45431 5.48971 5.51817 5.48971H10.8906C10.9545 5.48971 11.0132 5.52499 11.0431 5.58141Z" fill="#BEBEBE"/>
</svg>
