<svg width="72" height="73" viewBox="0 0 72 73" fill="none" xmlns="http://www.w3.org/2000/svg">
<rect x="0.570312" width="70.4857" height="72.5588" rx="35.2429" fill="#A774E7"/>
<path fill-rule="evenodd" clip-rule="evenodd" d="M25.7056 20H46.2914C46.682 20 46.9985 20.3083 46.9985 20.6889V30.1492L24.9985 38.1566V20.6889C24.9985 20.3083 25.3149 20 25.7056 20ZM24.9985 41.9049V38.1566L17.6534 40.83C16.7394 41.1626 16.2682 42.1733 16.6008 43.0873C16.9335 44.0012 17.9441 44.4725 18.8581 44.1398L24.9985 41.9049ZM46.9985 33.8976V30.1492L53.9959 27.6024C54.9099 27.2697 55.9206 27.741 56.2532 28.655C56.5859 29.569 56.1146 30.5796 55.2006 30.9122L46.9985 33.8976ZM46.9985 33.8976L24.9985 41.9049V50.3111C24.9985 50.5725 25.1505 50.8116 25.3905 50.928C25.4902 50.9762 25.5981 51 25.7052 51C25.8565 51 26.0071 50.9525 26.1323 50.8605L35.2074 44.1673C35.6755 43.8221 36.3218 43.8221 36.7899 44.1673L45.8646 50.8605C46.0789 51.0183 46.366 51.0441 46.6064 50.928C46.8468 50.8116 46.9985 50.5725 46.9985 50.3111V33.8976Z" fill="white"/>
</svg>
