<svg width="40" height="44" viewBox="0 0 40 44" fill="none" xmlns="http://www.w3.org/2000/svg">
<g filter="url(#filter0_d_324_8969)">
<path fill-rule="evenodd" clip-rule="evenodd" d="M29.9547 13.3418C30.9356 13.0488 31.8092 12.5771 32.5202 11.9795C33.6869 10.998 34.4067 9.66504 34.4067 8.20898C34.4067 7.39453 34.1832 6.62109 33.7827 5.92969H33.7856C33.6057 5.61914 33.3909 5.32324 33.1442 5.04785C33.0165 6.86426 32.5754 8.58691 31.8846 10.1543C31.3738 11.3115 30.7208 12.3838 29.9547 13.3418ZM20.3686 26.7217L21.1899 29.0449L23.6336 29.1152L21.6978 30.6211L22.3856 32.9883L20.3686 31.5937L18.3515 32.9883L19.0394 30.6211L17.1036 29.1152L19.5473 29.0449L20.3686 26.7217ZM9.9873 23.7129H30.7528V36H9.9873V23.7129ZM21.6252 17.5986V19.5176H21.7675V20.8594H18.1629V19.5176H18.3051V17.5869C16.1081 17.2441 14.0998 16.2422 12.46 14.7773L12.2656 15.3193C10.0047 15.2812 7.95864 14.4932 6.4756 13.2451C4.94613 11.9619 4 10.1807 4 8.20605C4 7.09277 4.30473 6.03809 4.85035 5.0918L4.84745 5.08887C5.39888 4.13086 6.19989 3.29297 7.17794 2.63672L8.06312 2.04199H7.03864V0H32.7553V2.04199H31.9369L32.8221 2.63672C33.7972 3.29297 34.5953 4.13086 35.1496 5.08887H35.1525C35.6953 6.03223 36 7.08691 36 8.20605C36 10.1807 35.0539 11.959 33.5215 13.248C32.0385 14.4961 29.9924 15.2842 27.7315 15.3223L27.5371 14.7773C25.8799 16.2598 23.8484 17.2676 21.6252 17.5986ZM16.2358 22.2041H23.6974V23.5459H16.2358V22.2041ZM17.3735 20.8594H22.5598V22.2012H17.3735V20.8594ZM7.47977 11.9795C8.19082 12.5801 9.0673 13.0488 10.0482 13.3447C9.28206 12.3867 8.62906 11.3145 8.11536 10.1514C7.42463 8.58691 6.98349 6.86133 6.8558 5.04492C6.61491 5.31445 6.40014 5.61328 6.2173 5.92676H6.2144C5.8168 6.61523 5.59332 7.3916 5.59332 8.20605C5.59332 9.66504 6.31308 10.9951 7.47977 11.9795Z" fill="white"/>
</g>
<defs>
<filter id="filter0_d_324_8969" x="0" y="0" width="40" height="44" filterUnits="userSpaceOnUse" color-interpolation-filters="sRGB">
<feFlood flood-opacity="0" result="BackgroundImageFix"/>
<feColorMatrix in="SourceAlpha" type="matrix" values="0 0 0 0 0 0 0 0 0 0 0 0 0 0 0 0 0 0 127 0" result="hardAlpha"/>
<feOffset dy="4"/>
<feGaussianBlur stdDeviation="2"/>
<feComposite in2="hardAlpha" operator="out"/>
<feColorMatrix type="matrix" values="0 0 0 0 0 0 0 0 0 0 0 0 0 0 0 0 0 0 0.25 0"/>
<feBlend mode="normal" in2="BackgroundImageFix" result="effect1_dropShadow_324_8969"/>
<feBlend mode="normal" in="SourceGraphic" in2="effect1_dropShadow_324_8969" result="shape"/>
</filter>
</defs>
</svg>
