<svg width="9" height="19" viewBox="0 0 9 19" fill="none" xmlns="http://www.w3.org/2000/svg">
<path fill-rule="evenodd" clip-rule="evenodd" d="M5.32864 0.678711C5.94775 0.678711 6.43482 0.863932 6.78959 1.2309C7.1406 1.59672 7.31784 2.09946 7.31784 2.74637C7.31784 3.40252 7.01597 3.9858 6.40775 4.49736C5.79632 5.00893 5.08706 5.2663 4.27885 5.2663C3.67147 5.2663 3.18858 5.09019 2.81831 4.7371C2.44833 4.37996 2.26341 3.91799 2.26341 3.34338C2.26341 2.61941 2.56529 1.9955 3.16569 1.46558C3.76581 0.941289 4.48652 0.678711 5.32864 0.678711ZM8.78828 18.4461H0.792969V17.0522H2.29537V8.53869H0.792969V7.4291H4.52978C5.47365 7.4291 6.40245 7.31169 7.31994 7.07196V17.0522H8.78828V18.4461Z" fill="#A774E7"/>
</svg>
