<svg width="20" height="20" viewBox="0 0 20 20" fill="none" xmlns="http://www.w3.org/2000/svg">
<path d="M7.93891 0.2059C8.29003 0.133087 8.64115 0.081309 8.98742 0.0473295C9.3434 0.01335 9.69614 -0.00283068 10.044 0.000405459C10.2398 0.00202353 10.3968 0.162213 10.3951 0.357999C10.3935 0.50848 10.2981 0.636307 10.1654 0.686467C8.68484 1.26897 7.50041 2.3547 6.7739 3.69932C6.05871 5.02128 5.78688 6.59243 6.11211 8.17814L6.11373 8.18946C6.48426 9.97905 7.54248 11.4499 8.95829 12.3819C10.3725 13.3139 12.141 13.7055 13.9306 13.3398L13.942 13.3382C15.2299 13.0712 16.3513 12.4498 17.2266 11.5939C18.1328 10.7088 18.7735 9.57453 19.0599 8.33185C19.1036 8.14092 19.2945 8.0228 19.4838 8.06649C19.6279 8.10047 19.7314 8.21697 19.7541 8.35451C20.1812 10.9758 19.5356 13.5437 18.1263 15.5889C16.7234 17.6244 14.5617 19.1438 11.9485 19.681C9.25925 20.2344 6.60077 19.6454 4.47624 18.2474C2.35009 16.8445 0.759529 14.6359 0.206148 11.9466C-0.334287 9.32049 0.214239 6.72349 1.54268 4.62485C2.87758 2.51974 4.99726 0.912997 7.59102 0.283568C7.64119 0.270623 7.69944 0.257679 7.76254 0.243116H7.76416L7.93891 0.2059Z" fill="#A774E7"/>
</svg>
