<svg width="18" height="19" viewBox="0 0 18 19" fill="none" xmlns="http://www.w3.org/2000/svg">
<path d="M12.3969 7.65912C12.5027 7.55677 12.628 7.47595 12.7656 7.42125C12.9032 7.36656 13.0503 7.33907 13.1987 7.34035C13.3471 7.34162 13.4937 7.37165 13.6303 7.42871C13.7669 7.48577 13.8907 7.56874 13.9947 7.6729C14.0987 7.77705 14.1809 7.90034 14.2364 8.03573C14.292 8.17111 14.3199 8.31595 14.3186 8.46196C14.3173 8.60798 14.2868 8.75231 14.2289 8.88672C14.1709 9.02113 14.0866 9.14298 13.9807 9.24533L9.68662 13.4191C9.47484 13.6237 9.18992 13.7383 8.89315 13.7383C8.59637 13.7383 8.31145 13.6237 8.09967 13.4191L3.8678 9.30657C3.66589 9.09815 3.55404 8.82074 3.55582 8.53278C3.5576 8.24482 3.67287 7.96878 3.87734 7.76279C4.08182 7.5568 4.35955 7.43694 4.65205 7.42845C4.94454 7.41997 5.22896 7.52352 5.44542 7.7173L7.77606 9.98944L7.80095 1.98796C7.81836 1.70284 7.94633 1.43518 8.15846 1.24021C8.37058 1.04525 8.65066 0.937866 8.94091 0.940224C9.23115 0.942581 9.50939 1.0545 9.71822 1.25288C9.92704 1.45126 10.0505 1.72097 10.0631 2.00633L10.0382 9.94656L12.3907 7.65912H12.3969Z" fill="#A774E7"/>
<path d="M0 17.8776V13.5232C0.0177428 13.238 0.146063 12.9705 0.358469 12.7758C0.570875 12.581 0.851151 12.474 1.14143 12.4767C1.43172 12.4795 1.70985 12.5918 1.91841 12.7905C2.12696 12.9893 2.25002 13.2592 2.26218 13.5446V16.714H15.7357V13.5232C15.7293 13.3721 15.7541 13.2213 15.8088 13.08C15.8634 12.9387 15.9468 12.8098 16.0536 12.7012C16.1605 12.5925 16.2887 12.5064 16.4305 12.4481C16.5723 12.3898 16.7246 12.3605 16.8783 12.3619C17.0319 12.3634 17.1836 12.3956 17.3242 12.4566C17.4648 12.5176 17.5914 12.6061 17.6961 12.7167C17.8008 12.8274 17.8816 12.9578 17.9335 13.1001C17.9854 13.2425 18.0073 13.3937 17.9979 13.5446V17.8776C17.9844 18.162 17.8608 18.4305 17.6525 18.6281C17.4442 18.8257 17.167 18.9374 16.8777 18.9402H1.13576C0.846234 18.9381 0.568574 18.8267 0.360114 18.629C0.151654 18.4312 0.028312 18.1623 0.015558 17.8776H0Z" fill="#A774E7"/>
</svg>
