<svg width="16" height="22" viewBox="0 0 16 22" fill="none" xmlns="http://www.w3.org/2000/svg">
<path d="M0.368447 13.5846L1.40852 11.8416C1.62693 11.4531 1.82454 10.7181 1.82454 10.2876V7.63111C1.82454 4.20811 4.58072 1.41511 7.98174 1.41511C11.3827 1.41511 14.1389 4.20811 14.1389 7.63111V10.2876C14.1389 10.7181 14.3365 11.4531 14.5549 11.8311L15.6054 13.5846C16.0214 14.2881 16.115 15.0651 15.855 15.7791C15.6054 16.4826 15.0126 17.0286 14.2429 17.2911C12.2252 17.9841 10.1034 18.3201 7.98174 18.3201C5.86001 18.3201 3.73827 17.9841 1.72054 17.3016C0.992488 17.0601 0.430851 16.5036 0.160433 15.7791C-0.109985 15.0546 -0.0371799 14.2566 0.368447 13.5846Z" fill="#A774E7"/>
<path d="M5.66146 1.85621C6.3791 1.57271 7.16009 1.41511 7.98174 1.41511C8.793 1.41511 9.57211 1.56221 10.2898 1.85621C9.84253 1.00571 8.95847 0.470215 7.98081 0.470215C6.99274 0.470215 6.11909 1.00571 5.66146 1.85621Z" fill="#A774E7"/>
<path d="M5.05936 19.3807C5.49619 20.5987 6.65066 21.4702 8.00275 21.4702C8.82441 21.4702 9.63566 21.1342 10.2077 20.5357C10.5405 20.2207 10.7901 19.8007 10.9358 19.3702C10.8005 19.3912 10.6653 19.4017 10.5197 19.4227C10.2805 19.4542 10.0309 19.4857 9.78127 19.5067C9.18843 19.5592 8.58519 19.5907 7.98195 19.5907C7.38911 19.5907 6.79627 19.5592 6.21384 19.5067C5.99542 19.4857 5.77701 19.4752 5.56899 19.4437C5.40258 19.4227 5.23617 19.4017 5.05936 19.3807Z" fill="#A774E7"/>
</svg>
