<svg width="15" height="15" viewBox="0 0 15 15" fill="none" xmlns="http://www.w3.org/2000/svg">
<path d="M13.5702 6.62414V12.7794C13.5702 13.0007 13.4767 13.2026 13.3261 13.3485C13.1762 13.4942 12.9683 13.5855 12.7401 13.5855H10.4056C10.5619 13.3312 10.7027 13.071 10.8274 12.8072H12.7401C12.7468 12.8072 12.754 12.8037 12.7596 12.798C12.7652 12.7926 12.7688 12.7859 12.7688 12.7794V6.69359C13.0537 6.71818 13.3231 6.69197 13.5702 6.62414ZM7.58963 14.7316C10.2233 13.181 11.2395 9.58705 9.42667 7.98101C8.32144 7.00139 6.87367 7.06841 5.73394 7.95075C3.73579 9.49679 4.63205 12.9064 7.58963 14.7316ZM7.50253 8.68904C8.33257 8.68904 9.00567 9.34248 9.00567 10.1489C9.00567 10.955 8.33257 11.6087 7.50253 11.6087C6.67222 11.6087 5.99912 10.955 5.99912 10.1489C5.99912 9.34248 6.67222 8.68904 7.50253 8.68904ZM11.6853 5.39671C11.2459 6.20878 9.73358 6.29363 9.13366 5.711C9.03835 5.61848 8.95795 5.51253 8.8952 5.39671C8.45611 6.20851 6.94352 6.29363 6.3436 5.711C6.24899 5.61884 6.1683 5.51291 6.10541 5.39671C6.04253 5.51291 5.96183 5.61884 5.86695 5.711C5.36164 6.20202 4.0594 6.20202 3.55381 5.711C3.45849 5.61848 3.3781 5.51253 3.31535 5.39671C3.25246 5.51291 3.17177 5.61884 3.07716 5.711C2.38486 6.38308 0.593732 6.12014 0.593732 4.8011C0.593732 4.72057 0.566742 4.30196 0.61321 4.22116L1.54759 1.31311C1.62495 1.07368 1.81221 0.919909 2.17561 0.902614L12.7518 0.902344C13.0782 0.936664 13.2905 1.06935 13.3784 1.31041L14.3843 4.21711C14.4364 4.30061 14.4069 4.71246 14.4069 4.8011C14.4069 6.19608 12.2718 6.48064 11.6853 5.39671ZM4.75365 13.5855H2.26048C2.0337 13.5855 1.82612 13.4947 1.67559 13.3488H1.67392C1.52394 13.2031 1.43045 13.0013 1.43045 12.7794V6.62306C1.62745 6.67819 1.84004 6.70845 2.0657 6.70845C2.12108 6.70845 2.17645 6.70656 2.23182 6.70278V12.7794C2.23182 12.7862 2.23516 12.7932 2.24073 12.7983C2.24546 12.804 2.25297 12.8072 2.26048 12.8072H4.28701C4.42475 13.0696 4.58002 13.3299 4.75365 13.5855Z" fill="#A774E7"/>
</svg>
