<svg width="22" height="21" viewBox="0 0 22 21" fill="none" xmlns="http://www.w3.org/2000/svg">
<g clip-path="url(#clip0_310_9670)">
<path d="M17.6409 8.75062C13.3625 7.67623 9.08423 7.67623 4.80578 8.75062C4.22831 8.89578 3.82422 9.41819 3.82422 10.0136V14.349V18.6843C3.82422 19.2797 4.22831 19.8024 4.80578 19.9473C9.08423 21.0217 13.3625 21.0217 17.6409 19.9473C18.2184 19.8021 18.6225 19.2797 18.6225 18.6843V14.349V10.0136C18.6225 9.41796 18.2186 8.89555 17.6409 8.75062ZM12.0489 14.3942V16.6217C12.0489 17.0775 11.6794 17.4472 11.2235 17.4472C10.7675 17.4472 10.398 17.0777 10.398 16.6217V14.3942C9.9031 14.0698 9.60982 13.463 9.75043 12.8018C9.87102 12.2348 10.3304 11.7772 10.8979 11.6584C11.873 11.4546 12.7317 12.1934 12.7317 13.1326C12.7317 13.6609 12.4598 14.1248 12.0489 14.3942Z" fill="#A774E7"/>
<path d="M7.20419 7.35087V5.99912C7.20419 3.78299 9.00735 1.97982 11.2235 1.97982C13.4396 1.97982 15.2426 3.78299 15.2426 5.99912V7.35064C15.8107 7.44006 16.3786 7.54973 16.9467 7.67692V5.99912C16.947 2.8433 14.3793 0.275635 11.2235 0.275635C8.06766 0.275635 5.5 2.8433 5.5 5.99912V7.67692C6.06814 7.54973 6.63605 7.44006 7.20419 7.35087Z" fill="#A774E7"/>
</g>
<defs>
<clipPath id="clip0_310_9670">
<rect width="20.7286" height="20.7286" fill="white" transform="translate(0.871094 0.161621)"/>
</clipPath>
</defs>
</svg>
