<svg width="14" height="17" viewBox="0 0 14 17" fill="none" xmlns="http://www.w3.org/2000/svg">
<path d="M2.42944 6.46891C1.99354 6.46891 1.61693 5.9557 1.2961 4.92234C0.989448 3.96438 0.828422 2.96625 0.818359 1.96098C0.818359 1.74252 1.05898 1.49978 1.54021 1.22931C2.23441 0.886478 2.97413 0.643622 3.73714 0.508038C4.79148 0.292879 5.86559 0.188277 6.94187 0.19595C11.4125 0.19595 13.6477 1.74483 13.6477 4.84258C13.6751 5.65044 13.4862 6.45101 13.1003 7.16243C12.7931 7.7334 12.338 8.2123 11.7821 8.54949C10.9107 9.07127 9.92428 9.37361 8.90865 9.43027L8.36814 9.45454C8.38173 9.73364 8.42024 10.011 8.48321 10.2833C8.55405 10.6035 8.5926 10.9299 8.59829 11.2577C8.59829 11.5074 8.17634 11.6946 7.32547 11.8264C6.59579 11.948 5.85785 12.0141 5.11807 12.0241C4.16607 12.0241 3.58022 11.7917 3.35355 11.3305C3.12688 10.8693 3.00483 9.88453 3.00483 8.37957C3.00483 8.02125 3.67437 7.75771 5.01345 7.58895C5.49734 7.51822 5.96211 7.35198 6.38043 7.10002C6.56886 7.00412 6.72672 6.85796 6.83635 6.6779C6.94598 6.49785 7.00304 6.291 7.00116 6.08053C7.00116 5.64361 6.65244 5.42861 5.955 5.42861C5.19452 5.44136 4.44598 5.61886 3.76155 5.94876C3.33685 6.1676 2.89042 6.34192 2.42944 6.46891ZM6.09797 12.8043C6.93167 12.7608 7.76483 12.8993 8.53901 13.21C9.10161 13.4851 9.38291 14.0469 9.38291 14.8953C9.38291 16.2823 8.29142 16.9758 6.10843 16.9758C3.92545 16.9758 2.83512 16.2823 2.83744 14.8953C2.83744 13.5082 3.92777 12.8147 6.10843 12.8147L6.09797 12.8043Z" fill="#A774E7"/>
</svg>
