<svg width="32" height="31" viewBox="0 0 32 31" fill="none" xmlns="http://www.w3.org/2000/svg">
<path fill-rule="evenodd" clip-rule="evenodd" d="M2.0319 3.53318C2.19941 3.03065 2.74259 2.75906 3.24511 2.92657L3.58391 3.03949C3.60079 3.04512 3.6176 3.05074 3.63438 3.05632C4.43541 3.3233 5.11234 3.54892 5.64464 3.79655C6.21045 4.05977 6.70139 4.38599 7.07366 4.90248C7.44592 5.41898 7.60016 5.98789 7.67094 6.6079C7.73755 7.19118 7.73752 7.90472 7.73748 8.74908V12.149C7.73748 13.9847 7.73953 15.2649 7.8694 16.2309C7.99555 17.1693 8.22632 17.6662 8.58026 18.0202C8.9342 18.3741 9.43112 18.6049 10.3695 18.731C11.3355 18.8609 12.6158 18.863 14.4514 18.863H23.4033C23.933 18.863 24.3625 19.2923 24.3625 19.8221C24.3625 20.3518 23.933 20.7812 23.4033 20.7812H14.3812C12.6323 20.7812 11.2226 20.7812 10.1139 20.6321C8.9628 20.4774 7.9936 20.1463 7.22383 19.3766C6.45408 18.6068 6.12299 17.6376 5.96824 16.4865C5.81918 15.3777 5.81919 13.9681 5.81921 12.2192V8.80229C5.81921 7.89048 5.81777 7.28716 5.76505 6.82548C5.71515 6.38832 5.628 6.17745 5.51748 6.02412C5.40696 5.87078 5.23447 5.72141 4.83553 5.53583C4.41421 5.33983 3.84231 5.14766 2.97729 4.85933L2.63851 4.7464C2.13598 4.57889 1.86439 4.03572 2.0319 3.53318Z" fill="#E3E3E3"/>
<path d="M7.73099 7.67307C7.73733 8.00445 7.7375 8.36309 7.73748 8.74908V12.149C7.73748 13.9847 7.73953 15.2649 7.8694 16.2309C7.88835 16.3718 7.90949 16.503 7.93322 16.625H20.8737C22.1006 16.625 22.7141 16.625 23.1945 16.3082C23.675 15.9913 23.9167 15.4275 24.4 14.2998L24.9481 13.021C25.9833 10.6054 26.5008 9.39764 25.9323 8.53535C25.3637 7.67307 24.0497 7.67307 21.4218 7.67307H7.73099Z" fill="#E3E3E3"/>
<path d="M9.97521 23.0192C11.0346 23.0192 11.8935 23.8781 11.8935 24.9375C11.8935 25.9969 11.0346 26.8558 9.97521 26.8558C8.91577 26.8558 8.05694 25.9969 8.05694 24.9375C8.05694 23.8781 8.91577 23.0192 9.97521 23.0192Z" fill="#E3E3E3"/>
<path d="M23.4031 24.9376C23.4031 23.8781 22.5442 23.0194 21.4848 23.0194C20.4254 23.0194 19.5666 23.8781 19.5666 24.9376C19.5666 25.997 20.4254 26.8559 21.4848 26.8559C22.5442 26.8559 23.4031 25.997 23.4031 24.9376Z" fill="#E3E3E3"/>
</svg>
