<svg width="31" height="31" viewBox="0 0 31 31" fill="none" xmlns="http://www.w3.org/2000/svg">
<path fill-rule="evenodd" clip-rule="evenodd" d="M24.9511 26.8407C23.4484 28.1346 21.2446 28.1346 16.837 28.1346H14.0079C9.6004 28.1346 7.39657 28.1346 5.8938 26.8407C4.39115 25.5467 4.0795 23.3808 3.45606 19.0487L3.09965 16.5712C2.61432 13.1987 2.37173 11.5125 3.06294 10.0709C3.75403 8.62914 5.22522 7.7528 8.16746 6.0001L9.93853 4.94513C12.6103 3.35351 13.9463 2.55769 15.4225 2.55769C16.8987 2.55769 18.2346 3.35351 20.9065 4.94513L22.6775 6.0001C25.6198 7.7528 27.0909 8.62914 27.7821 10.0709C28.4732 11.5125 28.2306 13.1987 27.7454 16.5712L27.3888 19.0487C26.7655 23.3808 26.4539 25.5467 24.9511 26.8407ZM19.259 22.0601C19.7887 22.0601 20.2182 22.4895 20.2182 23.0192C20.2182 23.5489 19.7887 23.9784 19.259 23.9784H11.5859C11.0563 23.9784 10.6268 23.5489 10.6268 23.0192C10.6268 22.4895 11.0563 22.0601 11.5859 22.0601H19.259Z" fill="#E3E3E3"/>
</svg>
