<svg width="31" height="31" viewBox="0 0 31 31" fill="none" xmlns="http://www.w3.org/2000/svg">
<path d="M15.3458 2.55769C18.6964 2.55769 21.4203 5.28164 21.4203 8.63221C21.4203 11.9188 18.8498 14.5788 15.4992 14.6939C15.3969 14.6812 15.2946 14.6812 15.2179 14.6939C15.1923 14.6939 15.1795 14.6939 15.154 14.6939C15.1412 14.6939 15.1412 14.6939 15.1284 14.6939C11.8545 14.5788 9.28405 11.9188 9.27126 8.63221C9.27126 5.28164 11.9952 2.55769 15.3458 2.55769Z" fill="#E3E3E3"/>
<path d="M8.84809 18.0955C12.4161 15.7169 18.2348 15.7169 21.8283 18.0955C23.4525 19.1826 24.3477 20.6532 24.3477 22.2262C24.3477 23.7992 23.4525 25.2571 21.8411 26.3313C20.0507 27.5334 17.6977 28.1345 15.3446 28.1345C12.9916 28.1345 10.6385 27.5334 8.84809 26.3313C7.23675 25.2443 6.34156 23.7864 6.34156 22.2006C6.35435 20.6277 7.23675 19.1698 8.84809 18.0955Z" fill="#E3E3E3"/>
</svg>
