<svg width="32" height="31" viewBox="0 0 32 31" fill="none" xmlns="http://www.w3.org/2000/svg">
<g clip-path="url(#clip0_183_180)">
<path fill-rule="evenodd" clip-rule="evenodd" d="M27.4569 22.6942C26.0538 22.6942 24.9139 23.8321 24.9139 25.2373C24.9139 26.6404 26.0518 27.7803 27.4569 27.7803C28.8621 27.7783 30 26.6404 30 25.2373C30 23.8321 28.8621 22.6942 27.4569 22.6942ZM22.8992 22.8663H5.40954C5.24959 22.8663 5.12 22.9959 5.12 23.1558V27.1911C5.12 27.3511 5.24959 27.4807 5.40954 27.4807H22.8992C23.0592 27.4807 23.1888 27.3511 23.1888 27.1911V23.1558C23.1888 22.9959 23.0572 22.8663 22.8992 22.8663ZM22.8992 14.0506H5.40954C5.24959 14.0506 5.12 14.1802 5.12 14.3401V18.3754C5.12 18.5354 5.24959 18.665 5.40954 18.665H22.8992C23.0592 18.665 23.1888 18.5354 23.1888 18.3754V14.3401C23.1888 14.1802 23.0572 14.0506 22.8992 14.0506ZM22.8992 5.23487H5.40954C5.24959 5.23487 5.12 5.36445 5.12 5.52441V9.55971C5.12 9.71967 5.24959 9.84925 5.40954 9.84925H22.8992C23.0592 9.84925 23.1888 9.71967 23.1888 9.55971V5.52441C23.1888 5.36445 23.0572 5.23487 22.8992 5.23487ZM27.4569 13.8461C26.0538 13.8461 24.9139 14.984 24.9139 16.3892C24.9139 17.7923 26.0518 18.9322 27.4569 18.9322C28.8621 18.9322 30 17.7943 30 16.3892C30 14.986 28.8621 13.8461 27.4569 13.8461ZM27.4569 5C26.0538 5 24.9139 6.1379 24.9139 7.54307C24.9139 8.94622 26.0518 10.0861 27.4569 10.0861C28.8621 10.0841 30 8.94622 30 7.54307C30 6.1379 28.8621 5 27.4569 5Z" fill="#E3E3E3"/>
</g>
<defs>
<clipPath id="clip0_183_180">
<rect width="30.6923" height="30.6923" fill="white" transform="matrix(-1 0 0 1 31.3848 0)"/>
</clipPath>
</defs>
</svg>
